<svg xmlns="http://www.w3.org/2000/svg" width="1000.054" height="1000.054" viewBox="0 0 1687 1687">
  <defs>
    <style>
      .cls-1 {
        fill: #fff;
        fill-rule: evenodd;
      }
    </style>
  </defs>
  <path class="cls-1" d="M817.257,59.125c387.793-6.318,643.863,218.727,754.793,489.961,74.97,183.328,74.83,414.991-2,596.954-92.68,219.49-265.09,377.56-503.86,450.96-59.13,18.18-121.336,20.46-191.948,31q-38.485-1.005-76.979-2-39.986-4.005-79.978-8c-65.111-13.3-124.034-29.93-177.95-52.99-216.448-92.62-370.791-259-443.876-494.97C67.474,979.692,47.3,842.591,69.466,728.072c10.36-53.515,20.076-104.645,37.99-150.988C195.448,349.443,351.7,193.1,579.324,105.121c46.321-17.9,97.452-27.7,150.958-38ZM1032.2,432.1l-26.99,3-47.992,14c-85.944,36.98-133.409,116-119.966,237.981l-11-1c-42.681,3.965-94.914-12.907-129.964-24C583.389,626.35,471.9,558.533,411.371,471.092l-2,1c-11.035,27.786-20.923,52.47-26.992,88.993-12.168,73.22,48.04,167.336,90.974,184.985v1c-39.876.687-64.688-15.205-92.974-25-0.011,104.054,75.344,191.939,164.954,204.984v1c-28.582,4.728-60.909,7.5-91.974,3,29.06,76.564,88.957,144.014,192.946,143.984-0.333.67-.666,1.34-1,2-24.017,10.32-45.657,31.55-69.98,44-63.384,32.43-140.842,43.97-233.935,40,0.333,0.66.667,1.33,1,2q27.489,15.495,54.985,30.99a803.833,803.833,0,0,0,153.957,51c113.749,25.44,249.484.9,333.906-34,206.882-85.5,364.8-281.8,361.9-573.951,31.13-17.515,89.01-73.617,102.97-106.992-32.93,14.528-72.69,29.638-115.97,32,0.33-.667.67-1.333,1-2,33.28-13.607,79.83-72.108,86.98-111.991-38.26,19.911-80.44,44.417-131.97,50C1159.96,458.386,1101.39,432.029,1032.2,432.1Z"/>
</svg>
