<?xml version="1.0" encoding="UTF-8"?><svg id="a" xmlns="http://www.w3.org/2000/svg" viewBox="0 0 400.2 400.2"><path d="M400.2,4.1c0-3.42-.68-4.1-4.1-4.1C265.43.12,134.77.12,4.1,0,.68,0,0,.68,0,4.1c.12,130.67.12,261.33,0,392,0,3.42.68,4.1,4.1,4.1,85.5-.13,171-.1,257-.1,45.33,0,90.17-.05,135,.1,3.43.01,4.1-.68,4.1-4.1-.12-130.67-.12-261.33,0-392ZM104,112.52c-.01-2.76.75-3.81,3.64-3.8,2.88.01,4.23.65,4.15,3.88-.19,8.16.05,16.33-.12,24.5-.06,2.95.66,4.06,3.86,4.01,12-.18,24-.15,36-.01,2.84.03,3.71-.82,3.65-3.66-.17-8.16.03-16.33-.11-24.5-.05-2.79.36-4.33,3.73-4.24,2.91.09,4.12.76,4.1,3.95-.11,23.66-.1,47.32-.01,70.99.01,3.03-.96,4.07-4.01,4.11-3.25.03-3.84-1.4-3.81-4.25.13-10.33-.04-20.66.11-30.99.04-3.02-.45-4.38-3.99-4.31-11.83.25-23.67.19-35.5.03-2.98-.04-4.14.71-4.02,3.87.22,5.83.06,11.66.06,18,0,5-.12,9.5.04,13.99.11,3-1.33,3.62-3.96,3.63-2.71.02-3.82-.78-3.81-3.7.1-23.83.09-47.67,0-71.5ZM47.07,172.81c2.49-2.56,3.63-.68,5.07.99,3.49,4.05,7.57,7.1,13.22,6.98,7.13-.14,12.62-5.19,13.93-12.64,1.31-7.42-1.53-12.4-8.83-15.26-2.16-.85-4.43-1.42-6.65-2.12-15-4.67-20.32-15.48-14.74-30.61,7.98-13.53,24.02-15.88,34.98-5.47,1.35,1.28,3.01,2.44.78,4.38-1.68,1.45-2.98,3.88-5.67,1.2-1.39-1.38-3.12-2.52-4.89-3.4-7.15-3.56-15.46-.79-18.69,6.1-3.73,7.96-1.15,15.84,6.56,19.28,3.33,1.49,6.88,2.46,10.36,3.59,8.43,2.74,13.65,8.2,14.18,17.3.53,9.14-2.55,16.89-10.62,21.68-7.84,4.64-15.94,4.29-23.54-.88-2.17-1.48-3.91-3.59-5.89-5.36-2.41-2.15-1.51-3.76.44-5.76ZM86.71,290.72c-2.14,1.28-5.81,1.98-8.05-1.2-2.2-3.13-4.36-6.29-6.53-9.44-5.38-7.81-10.75-15.62-16.15-23.46-1.8.86-.99,2.39-1,3.52-.08,9.15-.18,18.31.03,27.46.07,3.35-1.44,3.75-4.21,3.79-2.92.05-3.66-1.09-3.63-3.83.13-9.98.05-19.97.05-30.46,0-13.32.22-26.14-.12-38.95-.12-4.59,1.39-5.82,5.66-5.41,3.79.37,7.65.03,11.47.25,11.69.65,19.3,7.86,20.06,18.85.87,12.64-4.99,20.65-16.97,23.18-.77.16-1.56.28-2.74.49,2.19,4.84,5.49,8.57,8.21,12.64,3.98,5.95,8.21,11.73,12.15,17.7.97,1.48,3.86,3.61,1.77,4.87ZM158.35,283.86c-13.6,10.4-32.02,11.21-46.34,2.03-14.47-9.28-21.68-26.01-18.15-42.2.25-1.14.58-2.25.99-3.76,6.79-17.93,22.45-29.04,39.76-28.5,17.39.54,32.97,12.32,38.15,28.81,4.96,15.83-.78,33.21-14.41,43.62ZM190.62,121.05c.78-.86,1.64-1.65,2.73-2.71,12.65-10.66,26.64-13.65,41.76-7.82,14.24,5.48,23.09,16.19,25.78,31.28,3.25,18.21-7.52,36.49-25.17,43.69-17.49,7.13-37.62,1.02-48.64-14.77-10.8-15.47-9.37-35.63,3.54-49.67ZM263.65,264.58c-7.36,18.54-23.49,28.94-42.31,27.53-17.03-1.28-32.54-14.88-36.21-31.78-4.75-21.81,10.1-44.01,32.18-48.12,22.17-4.12,44.06,10.93,47.88,32.79,1.15,6.57.57,12.92-1.54,19.58ZM271.12,108.64c2.51-.72,5.24-.86,6.41,2.77,2.95,9.2,6.14,18.32,9.35,27.85,3.41,10.09,6.69,19.81,10.44,30.9,4.56-10.75,8.52-20.07,12.49-29.39.8-1.89.02-3.58-.56-5.32-2.53-7.58-5.06-15.17-7.53-22.77-.49-1.48-1.66-3.47.91-4.04,1.99-.45,4.44-1.1,5.75,1.44.68,1.32,1.09,2.79,1.57,4.21,5.43,16.1,10.84,32.2,16.27,48.3.68,2.02,1.42,4.03,2.16,6.11,2.08-.89,2.18-2.74,2.8-4.19,7.26-17.01,14.46-34.04,21.68-51.06.52-1.22.92-2.55,1.67-3.62,1.54-2.2,3.99-1.82,5.91-1.1,2.45.92.78,2.86.21,4.21-10.1,23.94-20.25,47.86-30.43,71.76-.55,1.29-.72,3.34-2.66,3.08-1.48-.2-1.51-2.04-1.92-3.26-3.24-9.63-6.42-19.28-9.67-28.91-.57-1.68-.8-3.57-2.56-5.35-4.82,11.33-9.47,22.35-14.21,33.33-.68,1.56-.7,4.27-2.89,4.12-2.07-.15-1.97-2.8-2.52-4.45-7.79-23.21-15.55-46.43-23.21-69.69-.51-1.55-2.72-4,.54-4.93ZM359.9,291.83c-2.66.35-4.74.1-5.42-3.37-2.65-13.55-5.55-27.06-8.38-40.58-.94-4.54-1.93-9.07-2.94-13.82-1.98,1.45-2.25,3.37-2.95,5-6.99,16.38-13.91,32.79-20.87,49.17-.56,1.32-.66,3.37-2.37,3.48-1.88.12-1.87-2.05-2.45-3.3-1.4-3.02-2.61-6.13-4.06-9.54-6.35-15-12.52-29.66-18.7-44.32-.38.03-.76.05-1.14.08-1.81,8.53-3.63,17.06-5.43,25.6-1.96,9.28-4.11,18.53-5.73,27.87-.65,3.8-2.74,4.23-5.59,3.7-3.71-.69-1.7-3.45-1.35-5.17,4.82-23.47,9.76-46.93,14.71-70.38.29-1.39.1-3.57,1.67-3.83,2.19-.36,2.2,2.13,2.78,3.5,8.25,19.45,16.42,38.93,24.65,58.49,2.25-.8,2.27-2.86,2.93-4.4,7.63-17.91,15.19-35.86,22.82-53.77.62-1.45.74-3.99,2.57-3.86,2.33.15,1.77,2.9,2.11,4.5,4.99,23.44,9.86,46.91,14.73,70.37.37,1.78,1.84,4.12-1.59,4.58Z" fill="#fff" stroke-width="0"/><path d="M167.01,250.36c-.23,18.76-13.66,33.53-31.09,34.66-17.21,1.1-32.77-11.69-35.11-28.87-2.33-17.21,9.89-33.87,27.07-36.92,17.19-3.04,34.33,8.28,38.23,25.27.41,1.78.59,3.61.9,5.86Z" fill="#fff" stroke-width="0"/><path d="M238.86,281.93c-17.41,8.19-38.28-.53-45.09-18.86-.52-1.4-.89-2.86-1.42-4.72-3.24-19.44,9.07-33.64,22.65-38.06,14.8-4.81,31.18,1.78,39.01,15.61,9.42,16.63,2.47,37.74-15.15,46.03Z" fill="#fff" stroke-width="0"/><path d="M248.34,166.2c-7.76,11.57-21.48,17.2-34.71,14.24-.81-.18-1.62-.37-2.81-.7-15.09-5.82-24.19-18.7-23.51-32.86.7-14.41,10.95-27.08,24.96-30.84,13.1-3.52,27.05,1.54,35.27,12.78,8.23,11.26,8.54,25.82.8,37.38Z" fill="#fff" stroke-width="0"/><path d="M76.07,239.06c-2.36,6.91-13.58,11.94-19.99,9.02-1.2-.55-1.13-1.49-1.13-2.44-.02-7.64-.15-15.28.03-22.92.12-5.23,4.29-1.66,6.85-2.65,11.81,1.02,17.64,9.04,14.24,18.99Z" fill="#fff" stroke-width="0"/></svg>