<?xml version="1.0" standalone="no"?>
<!DOCTYPE svg PUBLIC "-//W3C//DTD SVG 1.1//EN" "http://www.w3.org/Graphics/SVG/1.1/DTD/svg11.dtd" >
<svg xmlns="http://www.w3.org/2000/svg">
<defs>
  <font id="Iconify Explorer Font" horiz-adv-x="1000">
    <font-face font-family="Iconify Explorer Font"
      units-per-em="1000" ascent="1000"
      descent="0" />
    <missing-glyph horiz-adv-x="0" />
    <glyph glyph-name="ph:check-bold"
      unicode="&#xE001;"
      horiz-adv-x="1000" d="M406.25 234.375A47.65625 47.65625 0 0 0 373.046875 248.046875L154.296875 466.796875A46.875 46.875 0 0 0 220.703125 533.203125L406.25 347.65625L810.546875 751.953125A46.875 46.875 0 0 0 876.953125 685.546875L439.453125 248.046875A47.65625 47.65625 0 0 0 406.25 234.375z" />
    <glyph glyph-name="ph:check-circle-bold"
      unicode="&#xE002;"
      horiz-adv-x="1000" d="M705.859375 626.171875A46.875 46.875 0 0 0 704.2968749999999 559.765625L474.9999999999999 341.015625A46.875 46.875 0 0 0 442.578125 328.125A48.046875 48.046875 0 0 0 410.15625 341.015625L295.703125 450.390625A46.875 46.875 0 1 0 360.546875 518.359375L442.578125 439.8437500000001L639.453125 627.734375A46.875 46.875 0 0 0 705.859375 626.171875zM921.875 500A421.875 421.875 0 1 0 500 921.875A422.265625 422.265625 0 0 0 921.875 500zM828.125 500A328.125 328.125 0 1 1 500 171.875A328.515625 328.515625 0 0 1 828.125 500z" />
    <glyph glyph-name="ph:circle-wavy-check-bold"
      unicode="&#xE003;"
      horiz-adv-x="1000" d="M893.359375 609.375C879.6875 623.4375 865.625 638.28125 860.9374999999999 649.609375S856.6406249999999 680.078125 856.25 698.046875C855.46875 737.109375 855.0781249999999 785.9375 820.3125 820.3125S737.109375 855.46875 698.046875 856.25C680.078125 856.640625 659.3749999999999 856.640625 649.6093749999999 860.9375S623.4375 879.6875 609.3749999999999 893.359375C581.6406249999999 919.921875 547.2656249999999 953.125 499.9999999999999 953.125S418.3593749999999 919.921875 390.6249999999999 893.359375C376.5624999999999 879.6875 361.7187499999999 865.625 350.3906249999999 860.9375S319.9218749999999 856.640625 301.9531249999999 856.25C262.8906249999999 855.46875 214.0624999999999 855.078125 179.6874999999999 820.3125S144.5312499999999 737.109375 143.7499999999999 698.046875C143.3593749999999 680.078125 143.3593749999999 659.375 139.0624999999999 649.609375S120.3124999999999 623.4375 106.6406249999999 609.375C80.0781249999999 581.640625 46.8749999999999 547.265625 46.8749999999999 500S80.0781249999999 418.359375 106.6406249999999 390.625C120.3124999999999 376.5625 134.3749999999999 361.71875 139.0624999999999 350.390625S143.3593749999999 319.9218749999999 143.7499999999999 301.9531249999999C144.5312499999999 262.8906249999999 144.9218749999999 214.0624999999999 179.6874999999999 179.6874999999999S262.8906249999999 144.5312499999999 301.9531249999999 143.7499999999999C319.9218749999999 143.359375 340.6249999999999 143.359375 350.3906249999999 139.0625S376.5624999999999 120.3124999999999 390.6249999999999 106.6406249999999C418.3593749999999 80.0781249999999 452.7343749999999 46.8749999999999 499.9999999999999 46.8749999999999S581.6406249999999 80.0781249999999 609.3749999999999 106.6406249999999C623.4374999999999 120.3124999999999 638.2812499999999 134.3749999999999 649.6093749999999 139.0625S680.078125 143.359375 698.046875 143.7499999999999C737.109375 144.5312499999999 785.9375 144.921875 820.3125 179.6874999999999S855.46875 262.8906249999999 856.25 301.9531249999999C856.6406249999999 319.9218749999999 856.6406249999999 340.625 860.9374999999999 350.390625S879.6875 376.5624999999999 893.359375 390.625C919.921875 418.359375 953.125 452.734375 953.125 500S919.921875 581.640625 893.359375 609.375zM825.7812499999999 455.859375C807.0312499999999 435.9375 785.5468749999999 413.6718749999999 774.21875 386.3281249999999S762.8906249999999 330.859375 762.5 303.1249999999999C762.109375 282.4218749999998 761.71875 253.5156249999999 754.296875 245.7031249999999S717.9687499999999 237.8906249999999 696.875 237.4999999999999C669.140625 237.109375 640.234375 236.71875 613.671875 225.7812499999999S564.0625 192.9687499999999 544.1406249999999 174.21875C530.4687499999999 160.9375 509.3749999999999 140.625 499.9999999999999 140.625S469.5312499999999 160.9375 455.8593749999999 174.21875C435.9375 192.96875 413.671875 214.453125 386.328125 225.7812499999999S330.859375 237.109375 303.125 237.4999999999999C282.421875 237.8906249999999 253.515625 238.2812499999999 245.703125 245.7031249999999S237.890625 282.4218749999999 237.5 303.1249999999999C237.109375 330.8593749999999 236.71875 359.7656249999999 225.78125 386.3281249999999S192.96875 435.9374999999999 174.21875 455.859375C160.9375 469.53125 140.625 490.625 140.625 500S160.9375 530.46875 174.21875 544.140625C192.96875 564.0625 214.453125 586.328125 225.78125 613.671875S237.109375 669.140625 237.5 696.875C237.890625 717.96875 238.28125 746.484375 245.703125 754.296875S282.421875 762.109375 303.125 762.5C330.859375 762.890625 359.765625 763.28125 386.328125 774.21875S435.9375 807.03125 455.8593749999999 825.78125C469.5312499999999 839.0625 490.625 859.375 499.9999999999999 859.375S530.4687499999999 839.0625 544.1406249999999 825.78125C564.0624999999999 807.03125 586.328125 785.546875 613.671875 774.21875S669.1406249999999 762.890625 696.875 762.5C717.96875 762.109375 746.484375 761.71875 754.296875 754.296875S762.109375 717.96875 762.5 696.875C762.8906249999999 669.140625 763.2812499999999 640.234375 774.21875 613.671875S807.03125 564.0625 825.7812499999999 544.140625C839.0624999999999 530.46875 859.3749999999999 509.3749999999999 859.3749999999999 500S839.0624999999999 469.53125 825.7812499999999 455.859375zM705.859375 626.171875A46.875 46.875 0 0 0 704.2968749999999 559.765625L474.9999999999999 341.0156249999999A46.875 46.875 0 0 0 442.578125 328.1249999999999A47.65625 47.65625 0 0 0 410.15625 341.0156249999999L295.703125 450.3906249999999A46.875 46.875 0 1 0 360.546875 518.359375L442.578125 439.84375L639.453125 627.734375A46.875 46.875 0 0 0 705.859375 626.171875z" />
    <glyph glyph-name="ph:circle-wavy-check-fill"
      unicode="&#xE004;"
      horiz-adv-x="1000" d="M882.421875 598.4375C867.578125 613.671875 852.3437500000001 629.6875 846.4843750000001 643.359375S841.015625 677.34375 840.6250000000001 698.046875C840.2343750000001 735.9375 839.453125 779.296875 809.3750000000001 809.375S735.9375 840.234375 698.0468750000001 840.625C677.34375 841.015625 656.2500000000001 841.40625 643.3593750000001 846.484375S613.6718750000001 867.578125 598.4375000000001 882.421875C571.484375 908.203125 540.625 937.5 500 937.5S428.515625 908.203125 401.5625 882.421875C386.328125 867.578125 370.3125 852.34375 356.640625 846.484375S322.65625 841.015625 301.953125 840.625C264.0625 840.234375 220.703125 839.453125 190.625 809.375S159.765625 735.9375 159.375 698.046875C158.984375 677.34375 158.59375 656.25 153.515625 643.359375S132.421875 613.671875 117.578125 598.4375C91.796875 571.484375 62.5 540.625 62.5 500S91.796875 428.515625 117.578125 401.5625C132.421875 386.328125 147.65625 370.3125 153.515625 356.640625S158.984375 322.6562500000001 159.375 301.953125C159.765625 264.0625000000001 160.546875 220.703125 190.625 190.625S264.0625 159.765625 301.953125 159.375C322.65625 158.9843750000001 343.75 158.5937500000001 356.640625 153.515625S386.328125 132.421875 401.5625 117.5781250000001C428.515625 91.7968750000001 459.375 62.5000000000001 500 62.5000000000001S571.484375 91.7968750000001 598.4375 117.5781250000001C613.671875 132.4218750000001 629.6875 147.65625 643.359375 153.515625S677.3437499999999 158.9843750000001 698.046875 159.375C735.9374999999999 159.765625 779.296875 160.5468750000001 809.375 190.625S840.234375 264.0625000000001 840.625 301.953125C841.0156249999999 322.6562500000001 841.4062499999999 343.75 846.484375 356.640625S867.578125 386.328125 882.4218749999999 401.5625C908.2031249999998 428.5156250000001 937.4999999999998 459.3750000000001 937.4999999999998 500.0000000000001S908.2031249999998 571.484375 882.4218749999999 598.4375zM693.359375 571.09375L464.453125 352.34375A31.640625 31.640625 0 0 0 442.5781250000001 343.75A30.859375 30.859375 0 0 0 421.0937500000001 352.34375L306.6406250000001 461.71875A31.25 31.25 0 1 0 349.6093750000001 507.0312499999999L442.5781250000001 418.359375L650.390625 616.40625A31.25 31.25 0 0 0 693.359375 571.09375z" />
    <glyph glyph-name="ph:clock"
      unicode="&#xE005;"
      horiz-adv-x="1000" d="M500 906.25A406.25 406.25 0 1 1 906.25 500A407.03125 407.03125 0 0 1 500 906.25zM500 156.25A343.75 343.75 0 1 0 843.75 500A344.140625 344.140625 0 0 0 500 156.25zM750 500A31.25 31.25 0 0 0 718.75 468.75H500A31.25 31.25 0 0 0 468.75 500V718.75A31.25 31.25 0 0 0 531.25 718.75V531.25H718.75A31.25 31.25 0 0 0 750 500z" />
    <glyph glyph-name="ph:clock-bold"
      unicode="&#xE006;"
      horiz-adv-x="1000" d="M500 921.875A421.875 421.875 0 1 1 921.875 500A422.265625 422.265625 0 0 1 500 921.875zM500 171.875A328.125 328.125 0 1 0 828.125 500A328.515625 328.515625 0 0 0 500 171.875zM765.625 500A46.875 46.875 0 0 0 718.75 453.125H500A46.875 46.875 0 0 0 453.125 500V718.75A46.875 46.875 0 0 0 546.875 718.75V546.875H718.75A46.875 46.875 0 0 0 765.625 500z" />
    <glyph glyph-name="ph:coin-bold"
      unicode="&#xE007;"
      horiz-adv-x="1000" d="M817.96875 764.453125C734.765625 806.25 624.609375 828.125 500 828.125S265.234375 806.25 182.03125 764.453125S46.875 659.375 46.875 593.75V406.25C46.875 340.625 96.09375 278.515625 182.03125 235.546875S375.390625 171.875 500 171.875S734.765625 193.75 817.96875 235.546875S953.125 340.625 953.125 406.25V593.75C953.125 659.375 903.90625 721.484375 817.96875 764.453125zM224.21875 680.859375C293.359375 715.234375 391.40625 734.375 500 734.375S706.640625 715.234375 775.78125 680.859375C827.34375 655.078125 859.375 621.484375 859.375 593.75S827.34375 532.421875 775.78125 506.640625C706.640625 472.265625 608.59375 453.125 500 453.125S293.359375 472.265625 224.21875 506.640625C172.65625 532.421875 140.625 566.015625 140.625 593.75S172.65625 655.078125 224.21875 680.859375zM703.125 291.40625A711.7187499999999 711.7187499999999 0 0 0 546.875 266.7968749999999V360.5468749999999A798.0468750000001 798.0468750000001 0 0 1 703.125 382.0312499999999zM296.875 382.03125A798.0468750000001 798.0468750000001 0 0 1 453.125 360.546875V266.796875A711.7187499999999 711.7187499999999 0 0 0 296.875 291.4062500000001zM140.625 406.25V447.265625A349.609375 349.609375 0 0 1 182.03125 423.046875L203.125 413.28125V330.8593750000001C164.0625 354.6875 140.625 382.421875 140.625 406.2500000000001zM796.875 330.859375V413.2812499999999L817.96875 423.0468749999999A349.609375 349.609375 0 0 1 859.375 447.2656249999999V406.25C859.375 382.421875 835.9375 354.6875 796.875 330.859375z" />
    <glyph glyph-name="ph:coins-bold"
      unicode="&#xE008;"
      horiz-adv-x="1000" d="M734.375 663.671875V671.875C734.375 728.90625 692.1875 779.296875 615.234375 814.0625C550.390625 843.359375 464.84375 859.375 375 859.375S199.609375 843.359375 134.765625 814.0625C57.8125 779.296875 15.625 728.90625 15.625 671.875V515.625C15.625 458.59375 57.8125 408.203125 134.765625 373.4375A519.53125 519.53125 0 0 1 265.625 336.328125V328.125C265.625 271.09375 307.8125 220.703125 384.765625 185.9375C449.609375 156.640625 535.15625 140.625 625 140.625S800.390625 156.640625 865.234375 185.9375C942.1875 220.703125 984.375 271.09375 984.375 328.125V484.375C984.375 570.703125 885.546875 640.234375 734.375 663.671875zM890.625 484.375C890.625 453.90625 805.46875 396.484375 649.21875 391.015625C704.2968749999999 424.21875 734.375 467.578125 734.375 515.625V568.75C835.546875 550.390625 890.625 509.765625 890.625 484.375zM296.875 426.5625V488.671875A730.859375 730.859375 0 0 1 375 484.375A730.859375 730.859375 0 0 1 453.125 488.671875V426.5625A604.296875 604.296875 0 0 0 375 421.875A604.296875 604.296875 0 0 0 296.875 426.5625zM640.625 542.578125V515.625C640.625 496.8749999999999 608.203125 467.9687499999999 546.875 447.265625V505.859375A412.8906250000001 412.8906250000001 0 0 1 615.234375 529.6875A220.3125 220.3125 0 0 1 640.625 542.578125zM375 765.625C546.875 765.625 640.625 703.515625 640.625 671.875S546.875 578.125 375 578.125S109.375 640.234375 109.375 671.875S203.125 765.625 375 765.625zM109.375 515.625V542.578125A220.3125 220.3125 0 0 1 134.765625 529.6875A412.8906250000001 412.8906250000001 0 0 1 203.125 505.8593750000001V447.265625C141.796875 467.96875 109.375 496.8749999999999 109.375 515.625zM359.375 328.125H375Q396.09375 328.125 417.1875 329.296875C428.515625 325.390625 440.625 321.484375 453.125 318.359375V259.765625C391.796875 280.46875 359.375 309.375 359.375 328.125zM546.875 239.0625V301.171875A730.859375 730.859375 0 0 1 625 296.875A730.859375 730.859375 0 0 1 703.125 301.171875V239.0625A653.515625 653.515625 0 0 0 546.875 239.0625zM796.875 259.765625V318.359375A412.8906250000001 412.8906250000001 0 0 1 865.234375 342.1875A220.3125 220.3125 0 0 1 890.625 355.078125V328.125C890.625 309.375 858.203125 280.46875 796.875 259.765625z" />
    <glyph glyph-name="ph:currency-circle-dollar-bold"
      unicode="&#xE009;"
      horiz-adv-x="1000" d="M500 921.875A421.875 421.875 0 1 1 921.875 500A422.265625 422.265625 0 0 1 500 921.875zM500 171.875A328.125 328.125 0 1 0 828.125 500A328.515625 328.515625 0 0 0 500 171.875zM671.875 421.875A125.390625 125.390625 0 0 0 546.875 296.875V281.25A46.875 46.875 0 0 0 453.125 281.25V296.875H406.25A46.875 46.875 0 0 0 406.25 390.625H546.875A31.25 31.25 0 0 1 546.875 453.125H453.125A125 125 0 0 0 453.125 703.125V718.75A46.875 46.875 0 0 0 546.875 718.75V703.125H593.75A46.875 46.875 0 0 0 593.75 609.375H453.125A31.25 31.25 0 0 1 453.125 546.875H546.875A125.390625 125.390625 0 0 0 671.875 421.875z" />
    <glyph glyph-name="ph:diamonds-four"
      unicode="&#xE00A;"
      horiz-adv-x="1000" d="M455.859375 593.75A62.109375 62.109375 0 0 1 544.140625 593.75L656.25 705.859375A62.890625 62.890625 0 0 1 656.25 794.140625L544.140625 906.25A62.109375 62.109375 0 0 1 455.8593750000001 906.25L343.75 794.140625A62.890625 62.890625 0 0 1 343.75 705.859375zM500 862.109375L612.109375 750L500 637.890625L387.890625 750zM906.25 544.140625L794.140625 656.25A62.109375 62.109375 0 0 1 705.8593750000001 656.25L593.75 544.140625A62.890625 62.890625 0 0 1 593.75 455.859375L705.859375 343.75A62.109375 62.109375 0 0 1 794.1406249999999 343.75L906.2499999999998 455.859375A62.890625 62.890625 0 0 1 906.2499999999998 544.140625zM750 387.890625L637.890625 500L750 612.109375L862.109375 500zM406.25 544.140625L294.140625 656.25A62.109375 62.109375 0 0 1 205.859375 656.25L93.75 544.140625A62.890625 62.890625 0 0 1 93.75 455.859375L205.859375 343.75A62.109375 62.109375 0 0 1 294.1406250000001 343.75L406.2500000000001 455.859375A62.890625 62.890625 0 0 1 406.2500000000001 544.140625zM250 387.890625L137.890625 500L250 612.109375L362.109375 500zM544.140625 406.25A62.109375 62.109375 0 0 1 455.8593750000001 406.25L343.75 294.140625A62.890625 62.890625 0 0 1 343.75 205.8593750000001L455.859375 93.7500000000001A62.109375 62.109375 0 0 1 544.140625 93.7500000000001L656.25 205.8593750000001A62.890625 62.890625 0 0 1 656.25 294.140625zM500 137.890625L387.890625 250L500 362.109375L612.109375 250z" />
    <glyph glyph-name="ph:diamonds-four-bold"
      unicode="&#xE00B;"
      horiz-adv-x="1000" d="M444.921875 598.4375A77.34375 77.34375 0 0 1 555.078125 598.4375L659.3749999999999 702.734375A77.734375 77.734375 0 0 1 659.3749999999999 812.890625L555.078125 917.1875A77.34375 77.34375 0 0 1 444.921875 917.1875L340.625 812.890625A77.734375 77.734375 0 0 1 340.625 702.734375zM510.9375000000001 664.453125zM500 839.84375L582.03125 757.8125L500 675.78125L417.96875 757.8125zM917.1875 555.078125L812.8906250000001 659.375A77.34375 77.34375 0 0 1 702.7343750000001 659.375L598.4375000000002 555.078125A77.734375 77.734375 0 0 1 598.4375000000002 444.921875L702.7343750000001 340.6250000000001A77.34375 77.34375 0 0 1 812.8906250000001 340.6250000000001L917.1875 444.921875A77.734375 77.734375 0 0 1 917.1875 555.078125zM768.75 406.640625zM757.8125 417.96875L675.78125 500L757.8125 582.03125L839.84375 500zM401.5625 555.078125L297.265625 659.375A77.34375 77.34375 0 0 1 187.109375 659.375L82.8125 555.078125A77.734375 77.734375 0 0 1 82.8125 444.921875L187.109375 340.6250000000001A77.34375 77.34375 0 0 1 297.265625 340.6250000000001L401.5625 444.921875A77.734375 77.734375 0 0 1 401.5625 555.078125zM253.125 406.640625zM242.1875 417.96875L160.15625 500L242.1875 582.03125L324.21875 500zM555.078125 401.5625A77.34375 77.34375 0 0 1 444.921875 401.5625L340.625 297.2656250000001A77.734375 77.734375 0 0 1 340.625 187.1093750000001L444.921875 82.8125000000002A77.34375 77.34375 0 0 1 555.078125 82.8125000000002L659.3749999999999 187.1093750000001A77.734375 77.734375 0 0 1 659.3749999999999 297.2656250000001zM510.9374999999999 148.8281250000001zM500 160.15625L417.96875 242.1875L500 324.21875L582.03125 242.1875z" />
    <glyph glyph-name="ph:dots-three-circle"
      unicode="&#xE00C;"
      horiz-adv-x="1000" d="M500 906.25A406.25 406.25 0 1 1 906.25 500A407.03125 407.03125 0 0 1 500 906.25zM500 156.25A343.75 343.75 0 1 0 843.75 500A344.140625 344.140625 0 0 0 500 156.25zM546.875 500A46.875 46.875 0 1 0 500 546.875A46.875 46.875 0 0 0 546.875 500zM734.375 500A46.875 46.875 0 1 0 687.5 546.875A46.875 46.875 0 0 0 734.375 500zM359.375 500A46.875 46.875 0 1 0 312.5 546.875A46.875 46.875 0 0 0 359.375 500z" />
    <glyph glyph-name="ph:dots-three-circle-bold"
      unicode="&#xE00D;"
      horiz-adv-x="1000" d="M500 921.875A421.875 421.875 0 1 1 921.875 500A422.265625 422.265625 0 0 1 500 921.875zM500 171.875A328.125 328.125 0 1 0 828.125 500A328.515625 328.515625 0 0 0 500 171.875zM453.125 500A62.5 62.5 0 1 0 390.625 562.5A62.5 62.5 0 0 0 453.125 500zM671.875 500A62.5 62.5 0 1 0 609.375 562.5A62.5 62.5 0 0 0 671.875 500z" />
    <glyph glyph-name="ph:dots-three-circle-fill"
      unicode="&#xE00E;"
      horiz-adv-x="1000" d="M500 906.25A406.25 406.25 0 1 1 906.25 500A407.03125 407.03125 0 0 1 500 906.25zM312.5 453.125A46.875 46.875 0 1 0 359.375 500A46.875 46.875 0 0 0 312.5 453.125zM500 453.125A46.875 46.875 0 1 0 546.875 500A46.875 46.875 0 0 0 500 453.125zM687.5 453.125A46.875 46.875 0 1 0 734.375 500A46.875 46.875 0 0 0 687.5 453.125z" />
    <glyph glyph-name="ph:dots-three-outline-fill"
      unicode="&#xE00F;"
      horiz-adv-x="1000" d="M609.375 500A109.375 109.375 0 1 0 500 609.375A109.765625 109.765625 0 0 0 609.375 500zM187.5 609.375A109.375 109.375 0 1 1 296.875 500A109.765625 109.765625 0 0 1 187.5 609.375zM812.5 609.375A109.375 109.375 0 1 1 921.875 500A109.765625 109.765625 0 0 1 812.5 609.375z" />
    <glyph glyph-name="ph:dots-three-outline-vertical-fill"
      unicode="&#xE010;"
      horiz-adv-x="1000" d="M609.375 500A109.375 109.375 0 1 0 500 609.375A109.765625 109.765625 0 0 0 609.375 500zM500 703.125A109.375 109.375 0 1 1 390.625 812.5A109.765625 109.765625 0 0 1 500 703.125zM500 296.875A109.375 109.375 0 1 1 609.375 187.5A109.765625 109.765625 0 0 1 500 296.875z" />
    <glyph glyph-name="ph:gift-bold"
      unicode="&#xE011;"
      horiz-adv-x="1000" d="M843.75 734.375H735.9375A140.625 140.625 0 0 1 510.9375000000001 897.265625A118.75 118.75 0 0 1 500 884.375A118.75 118.75 0 0 1 489.0625 897.265625A140.625 140.625 0 0 1 264.0625 734.375H156.25A78.515625 78.515625 0 0 1 78.125 656.25V531.25A78.515625 78.515625 0 0 1 140.625 454.6875V218.75A78.515625 78.515625 0 0 1 218.75 140.625H781.25A78.515625 78.515625 0 0 1 859.375 218.75V454.6875A78.515625 78.515625 0 0 1 921.875 531.25V656.25A78.515625 78.515625 0 0 1 843.75 734.375zM828.125 546.875H546.875V640.625H828.125zM577.34375 831.25A46.875 46.875 0 0 0 610.546875 844.921875A46.875 46.875 0 0 0 643.75 764.84375C630.859375 751.953125 591.015625 742.1875 549.6093750000001 737.5C555.0781250000001 783.59375 566.4062500000001 820.3125 577.34375 831.25zM356.2500000000001 831.25A47.65625 47.65625 0 0 0 422.6562500000001 831.25C435.5468750000001 818.359375 445.3125000000001 778.515625 450.0000000000001 737.109375C403.9062500000001 742.578125 367.1875000000001 753.90625 356.2500000000001 764.84375A47.65625 47.65625 0 0 0 356.2500000000001 831.25zM171.875 640.625H453.125V546.875H171.875zM234.375 453.125H453.125V234.375H234.375zM546.875 234.375V453.125H765.625V234.375z" />
    <glyph glyph-name="ph:graduation-cap"
      unicode="&#xE012;"
      horiz-adv-x="1000" d="M983.59375 652.734375L514.84375 902.734375A33.203125 33.203125 0 0 1 485.1562500000001 902.734375L16.4062500000001 652.734375A31.640625 31.640625 0 0 1 16.4062500000001 597.265625L109.375 548.046875V353.515625A60.546875 60.546875 0 0 1 121.875 316.40625C152.734375 275 271.484375 140.625 500 140.625A502.734375 502.734375 0 0 1 703.125 181.640625V62.5A31.25 31.25 0 0 1 765.625 62.5V214.453125A436.7187500000001 436.7187500000001 0 0 1 878.125 316.40625A60.546875 60.546875 0 0 1 890.625 353.515625V548.046875L983.59375 597.265625A31.640625 31.640625 0 0 1 983.59375 652.734375zM500 203.125C300.390625 203.125 198.4375 318.359375 171.875 353.515625V514.453125L485.15625 347.265625A33.203125 33.203125 0 0 1 514.84375 347.265625L703.125 448.0468750000001V250.7812500000001C651.953125 223.828125 584.765625 203.1250000000001 500 203.1250000000001zM828.125 353.90625A335.15625 335.15625 0 0 0 765.625 291.015625V481.25L828.125 514.453125zM844.53125 594.140625L734.375 535.546875L514.84375 652.734375A31.640625 31.640625 0 1 1 485.1562500000001 597.265625L667.96875 500L500 410.546875L155.46875 594.140625L97.65625 625L500 839.453125L902.34375 625z" />
    <glyph glyph-name="ph:graduation-cap-bold"
      unicode="&#xE013;"
      horiz-adv-x="1000" d="M975.78125 666.015625L522.65625 916.015625A46.875 46.875 0 0 1 477.3437500000001 916.015625L24.2187500000001 666.015625A46.875 46.875 0 0 1 24.2187500000001 583.984375L78.1250000000001 554.296875V354.6875A79.296875 79.296875 0 0 1 96.4843750000001 304.296875C132.03125 262.109375 266.40625 125 500 125A542.1875 542.1875 0 0 1 679.6875 154.6875V62.5A46.875 46.875 0 0 1 773.4375 62.5V197.265625A516.40625 516.40625 0 0 1 903.515625 304.296875A79.296875 79.296875 0 0 1 921.875 354.6875V554.296875L975.78125 583.984375A46.875 46.875 0 0 1 975.78125 666.015625zM500 821.484375L856.25 625L852.7343749999999 623.046875H852.34375L726.5625 553.515625L522.65625 666.015625A46.875 46.875 0 1 1 477.3437500000001 583.984375L629.6875000000001 500L500 428.515625L147.65625 623.046875H147.265625L143.75 625zM500 218.75C314.0625 218.75 205.859375 321.875 171.875 360.546875V502.3437500000001L477.34375 333.984375A46.875 46.875 0 0 1 522.65625 333.984375L679.6875 420.703125V254.6875A455.8593750000001 455.8593750000001 0 0 0 500 218.75zM828.125 360.546875A389.84375 389.84375 0 0 0 773.4375 309.765625V472.265625L828.125 502.3437500000001z" />
    <glyph glyph-name="ph:infinity-bold"
      unicode="&#xE014;"
      horiz-adv-x="1000" d="M984.375 500A234.375 234.375 0 0 0 584.375 334.375L582.421875 336.328125L348.4375 600.390625A140.625 140.625 0 1 1 348.4375 399.6093749999999L360.546875 413.2812499999999A46.875 46.875 0 0 0 430.859375 351.1718749999999L417.5781249999999 336.3281249999999L415.6249999999999 334.3749999999999A233.984375 233.984375 0 0 0 84.3749999999999 334.3749999999999A234.375 234.375 0 0 0 250 734.375A231.640625 231.640625 0 0 0 415.625 665.625L417.578125 663.671875L651.5625 399.609375A140.625 140.625 0 1 1 651.5625 600.390625L639.4531250000001 586.71875A46.875 46.875 0 0 0 569.1406250000001 648.8281250000001L582.4218750000001 663.671875L584.3750000000001 665.625A234.375 234.375 0 0 0 984.375 500z" />
    <glyph glyph-name="ph:info-bold"
      unicode="&#xE015;"
      horiz-adv-x="1000" d="M500 921.875A421.875 421.875 0 1 1 921.875 500A422.265625 422.265625 0 0 1 500 921.875zM500 171.875A328.125 328.125 0 1 0 828.125 500A328.515625 328.515625 0 0 0 500 171.875zM578.125 312.5A46.875 46.875 0 0 0 531.25 265.625H500A46.875 46.875 0 0 0 453.125 312.5V471.484375A46.484375 46.484375 0 0 0 421.875 515.625A46.875 46.875 0 0 0 468.75 562.5H500A46.875 46.875 0 0 0 546.875 515.625V356.6406249999999A46.484375 46.484375 0 0 0 578.125 312.4999999999999zM429.6875 671.875A62.5 62.5 0 1 0 492.1875 609.375A62.5 62.5 0 0 0 429.6875 671.875z" />
    <glyph glyph-name="ph:microphone-stage"
      unicode="&#xE016;"
      horiz-adv-x="1000" d="M857.421875 460.15625A280.859375 280.859375 0 0 1 460.15625 857.421875L457.421875 855.078125L455.078125 852.34375A279.6875 279.6875 0 0 1 375 656.25A254.296875 254.296875 0 0 1 376.5625 626.171875L84.375 227.734375A62.5 62.5 0 0 1 90.625 146.484375L146.4843750000001 90.625A62.5 62.5 0 0 1 227.7343750000001 84.375L626.171875 376.5624999999999A254.296875 254.296875 0 0 1 656.25 374.9999999999999A279.6875 279.6875 0 0 1 852.34375 455.0781249999999L855.0781249999999 457.4218749999999zM875 656.25A216.796875 216.796875 0 0 0 831.25 525.390625L525.390625 831.25A218.359375 218.359375 0 0 0 875 656.25zM190.625 134.765625L134.765625 190.625L396.875 547.65625A282.03125 282.03125 0 0 1 547.65625 396.8750000000001zM437.5 656.25A216.796875 216.796875 0 0 0 481.25 787.109375L787.109375 481.25A218.359375 218.359375 0 0 0 437.5 656.25zM412.890625 412.890625A31.640625 31.640625 0 0 0 412.890625 368.3593749999999L366.015625 321.4843749999999A32.03125 32.03125 0 0 0 321.484375 321.4843749999999A31.640625 31.640625 0 0 0 321.484375 366.015625L368.359375 412.890625A31.640625 31.640625 0 0 0 412.890625 412.890625z" />
    <glyph glyph-name="ph:microphone-stage-bold"
      unicode="&#xE017;"
      horiz-adv-x="1000" d="M869.53125 450A296.875 296.875 0 0 1 450 869.53125L446.484375 866.015625L442.96875 862.5A296.4843750000001 296.4843750000001 0 0 1 359.375 656.25Q359.375 643.359375 360.546875 630.46875L71.875 236.71875A76.953125 76.953125 0 0 1 79.6875 135.546875L135.546875 79.6874999999999A77.34375 77.34375 0 0 1 236.71875 71.8749999999999L630.46875 360.5468749999999Q643.3593750000001 359.3749999999999 656.25 359.3749999999999A296.4843750000001 296.4843750000001 0 0 1 862.5 442.9687499999999L866.0156250000001 446.4843749999999zM859.375 656.25A200 200 0 0 0 828.90625 549.609375L549.609375 828.90625A200 200 0 0 0 656.25 859.375A203.125 203.125 0 0 0 859.375 656.25zM453.125 656.25A200 200 0 0 0 483.59375 762.890625L762.890625 483.59375A200 200 0 0 0 656.25 453.125A203.125 203.125 0 0 0 453.125 656.25zM192.1875 155.46875L155.46875 192.1875000000001L393.7500000000001 517.578125A300.390625 300.390625 0 0 1 517.578125 393.75z" />
    <glyph glyph-name="ph:moon-bold"
      unicode="&#xE018;"
      horiz-adv-x="1000" d="M891.015625 417.578125A46.875 46.875 0 0 1 845.703125 450.78125A44.53125 44.53125 0 0 1 832.8125 448.4375A312.5 312.5 0 0 0 448.828125 832.8125A52.734375 52.734375 0 0 1 450.390625 843.75A46.875 46.875 0 0 1 421.09375 889.84375A49.21875 49.21875 0 0 1 390.234375 891.40625A406.25 406.25 0 1 1 891.40625 390.625A48.828125 48.828125 0 0 1 891.015625 417.578125zM500 187.5A312.5 312.5 0 0 0 344.140625 771.09375A407.03125 407.03125 0 0 1 771.0937499999999 344.140625A314.0625 314.0625 0 0 0 500 187.5z" />
    <glyph glyph-name="ph:presentation-chart-bold"
      unicode="&#xE019;"
      horiz-adv-x="1000" d="M843.75 859.375H546.875V906.25A46.875 46.875 0 0 1 453.125 906.25V859.375H156.25A78.515625 78.515625 0 0 1 78.125 781.25V312.5A78.515625 78.515625 0 0 1 156.25 234.375H277.34375L213.28125 154.296875A47.265625 47.265625 0 0 1 220.703125 88.28125A48.4375 48.4375 0 0 1 250 78.125A46.875 46.875 0 0 1 286.71875 95.703125L397.6562500000001 234.375H602.3437500000001L713.2812500000001 95.703125A46.875 46.875 0 0 1 750.0000000000001 78.125A48.4375 48.4375 0 0 1 779.2968750000001 88.28125A47.265625 47.265625 0 0 1 786.7187500000001 154.296875L722.65625 234.375H843.75A78.515625 78.515625 0 0 1 921.875 312.5V781.25A78.515625 78.515625 0 0 1 843.75 859.375zM828.125 328.125H171.875V765.625H828.125zM406.25 531.25V437.5A46.875 46.875 0 0 0 312.5 437.5V531.25A46.875 46.875 0 0 0 406.25 531.25zM500 640.625A46.875 46.875 0 0 0 546.875 593.75V437.5A46.875 46.875 0 0 0 453.125 437.5V593.75A46.875 46.875 0 0 0 500 640.625zM593.75 437.5V656.25A46.875 46.875 0 0 0 687.5 656.25V437.5A46.875 46.875 0 0 0 593.75 437.5z" />
    <glyph glyph-name="ph:sun-bold"
      unicode="&#xE01A;"
      horiz-adv-x="1000" d="M500 781.25A281.25 281.25 0 1 1 781.25 500A281.640625 281.640625 0 0 1 500 781.25zM500 312.5A187.5 187.5 0 1 0 687.5 500A187.5 187.5 0 0 0 500 312.5zM453.125 890.625V953.125A46.875 46.875 0 0 0 546.875 953.125V890.625A46.875 46.875 0 0 0 453.125 890.625zM742.96875 742.96875A46.875 46.875 0 0 0 742.96875 809.375L787.109375 853.515625A46.875 46.875 0 0 0 853.515625 787.109375L809.375 742.96875A46.875 46.875 0 0 0 776.171875 729.296875A47.65625 47.65625 0 0 0 742.96875 742.96875zM1000 500A46.875 46.875 0 0 0 953.125 453.125H890.625A46.875 46.875 0 0 0 890.625 546.875H953.125A46.875 46.875 0 0 0 1000 500zM853.515625 212.890625A46.875 46.875 0 0 0 853.515625 146.484375A45.3125 45.3125 0 0 0 820.3125 132.8125A46.875 46.875 0 0 0 787.109375 146.484375L742.96875 190.625A46.875 46.875 0 0 0 809.375 257.03125zM546.875 109.375V46.875A46.875 46.875 0 0 0 453.125 46.875V109.375A46.875 46.875 0 0 0 546.875 109.375zM257.03125 257.03125A46.875 46.875 0 0 0 257.03125 190.625L212.890625 146.484375A46.875 46.875 0 0 0 179.6875 132.8125A45.3125 45.3125 0 0 0 146.484375 146.484375A46.875 46.875 0 0 0 146.484375 212.890625L190.625 257.03125A46.875 46.875 0 0 0 257.03125 257.03125zM109.375 453.125H46.875A46.875 46.875 0 0 0 46.875 546.875H109.375A46.875 46.875 0 0 0 109.375 453.125zM146.484375 787.109375A46.875 46.875 0 0 0 212.890625 853.515625L257.03125 809.375A46.875 46.875 0 0 0 257.03125 742.96875A47.65625 47.65625 0 0 0 223.828125 729.296875A46.875 46.875 0 0 0 190.625 742.96875z" />
    <glyph glyph-name="ph:user-bold"
      unicode="&#xE01B;"
      horiz-adv-x="1000" d="M919.53125 179.6875A485.1562500000001 485.1562500000001 0 0 1 678.1250000000001 387.5A296.875 296.875 0 1 1 321.8750000000001 387.5A485.1562500000001 485.1562500000001 0 0 1 80.46875 179.6875A46.875 46.875 0 0 1 161.71875 132.8125A390.625 390.625 0 0 0 838.28125 132.8125A47.265625 47.265625 0 0 1 878.90625 109.375A45.703125 45.703125 0 0 1 902.34375 115.625A46.875 46.875 0 0 1 919.53125 179.6875zM296.875 625A203.125 203.125 0 1 0 500 421.875A203.125 203.125 0 0 0 296.875 625z" />
    <glyph glyph-name="ph:users"
      unicode="&#xE01C;"
      horiz-adv-x="1000" d="M473.4375 383.203125A234.375 234.375 0 1 1 214.0625 383.203125A373.046875 373.046875 0 0 1 37.109375 246.875A31.25 31.25 0 1 1 87.890625 210.9375A312.890625 312.890625 0 0 0 599.609375 210.9375A31.25 31.25 0 1 1 650.390625 246.875A373.046875 373.046875 0 0 1 473.4375 383.203125zM171.875 578.125A171.875 171.875 0 1 0 343.75 406.25A171.875 171.875 0 0 0 171.875 578.125zM961.328125 203.515625A30.859375 30.859375 0 0 0 917.96875 210.9375A313.28125 313.28125 0 0 1 662.109375 343.75A31.25 31.25 0 0 0 662.109375 406.25A171.875 171.875 0 0 1 662.109375 750A185.15625 185.15625 0 0 1 615.625 743.75A31.25 31.25 0 0 0 576.953125 765.234375A31.640625 31.640625 0 0 0 598.4375 803.90625A250 250 0 0 0 662.109375 812.5A233.984375 233.984375 0 0 0 791.796875 383.203125A376.171875 376.171875 0 0 0 969.140625 246.875A31.25 31.25 0 0 0 961.328125 203.515625z" />
    <glyph glyph-name="ph:users-bold"
      unicode="&#xE01D;"
      horiz-adv-x="1000" d="M504.6874999999999 387.109375A250 250 0 1 1 182.8125 387.109375A391.015625 391.015625 0 0 1 24.2187499999999 255.859375A46.875 46.875 0 0 1 35.5468749999999 190.625A46.09375 46.09375 0 0 1 62.4999999999999 182.0312500000001A46.484375 46.484375 0 0 1 100.7812499999999 201.9531250000001A296.875 296.875 0 0 0 586.71875 201.9531250000001A46.875 46.875 0 1 1 663.2812499999999 255.8593750000001A391.015625 391.015625 0 0 1 504.6874999999999 387.1093750000001zM187.5 578.125A156.25 156.25 0 1 0 343.75 421.875A156.25 156.25 0 0 0 187.5 578.125zM970.3125 190.625A46.09375 46.09375 0 0 0 943.359375 182.0312500000001A47.265625 47.265625 0 0 0 905.078125 201.9531250000001A297.65625 297.65625 0 0 1 662.109375 328.125A46.875 46.875 0 0 0 662.109375 421.875A156.25 156.25 0 0 1 662.109375 734.375A152.734375 152.734375 0 0 1 619.921875 728.515625A46.875 46.875 0 1 0 594.53125 818.75A245.3125 245.3125 0 0 0 662.109375 828.125A249.609375 249.609375 0 0 0 823.046875 387.109375A391.015625 391.015625 0 0 0 981.6406249999998 255.859375A46.484375 46.484375 0 0 0 970.3124999999998 190.625z" />
    <glyph glyph-name="ph:video-camera-bold"
      unicode="&#xE01E;"
      horiz-adv-x="1000" d="M960.9375 728.125A47.65625 47.65625 0 0 1 914.0625 728.125L765.625 643.359375A172.265625 172.265625 0 0 1 593.75 812.5H93.75A78.515625 78.515625 0 0 1 15.625 734.375V359.375A171.875 171.875 0 0 1 187.5 187.5H687.5A78.515625 78.515625 0 0 1 765.625 265.625V356.640625L914.0625 271.8750000000001A45.703125 45.703125 0 0 1 937.5 265.6250000000001A44.921875 44.921875 0 0 1 960.9375 271.8750000000001A47.265625 47.265625 0 0 1 984.375 312.5000000000001V687.5A47.265625 47.265625 0 0 1 960.9375 728.125zM671.875 281.25H187.5A78.515625 78.515625 0 0 0 109.375 359.375V718.75H593.75A78.515625 78.515625 0 0 0 671.875 640.625zM890.625 393.359375L765.625 464.84375V535.15625L890.625 606.640625z" />
    <glyph glyph-name="ph:x-bold"
      unicode="&#xE01F;"
      horiz-adv-x="1000" d="M814.453125 251.953125A46.875 46.875 0 0 0 814.453125 185.546875A47.265625 47.265625 0 0 0 748.046875 185.546875L500 433.59375L251.953125 185.546875A47.265625 47.265625 0 0 0 185.546875 185.546875A46.875 46.875 0 0 0 185.546875 251.953125L433.59375 500L185.546875 748.046875A46.875 46.875 0 0 0 251.953125 814.453125L500 566.40625L748.046875 814.453125A46.875 46.875 0 0 0 814.453125 748.046875L566.40625 500z" />
  </font>
</defs>
</svg>
