<?xml version="1.0" standalone="no"?>
<!DOCTYPE svg PUBLIC "-//W3C//DTD SVG 1.1//EN" "http://www.w3.org/Graphics/SVG/1.1/DTD/svg11.dtd">
<svg xmlns="http://www.w3.org/2000/svg">
<defs >
<font id="Signika" horiz-adv-x="1241" ><font-face
    font-family="Signika Light SemiBold"
    units-per-em="2000"
    panose-1="0 0 0 0 0 0 0 0 0 0"
    ascent="1880"
    descent="-584"
    alphabetic="0" />
<glyph unicode=" " horiz-adv-x="440" />
<glyph unicode="!" horiz-adv-x="597" d="M192 404Q178 600 162 795T146 1188V1365Q182 1375 237 1378T348 1379T439 1364V1185Q439 989 422 795T391 404Q365 396 339 394T292 392Q273 392 245 394T192 404ZM292 250Q372 250 423 221Q432 204 437 171T443 114Q443
90 438 58T423 9Q399 -5 364 -12T292 -20Q257 -20 222 -13T161 9Q152 25 147 57T142 114Q142 138 147 171T161 221Q186 235 221 242T292 250Z" />
<glyph unicode="&quot;" horiz-adv-x="843" d="M491 1422Q491 1450 494 1477T504 1530Q529 1544 558 1552T622 1561Q656 1561 686 1553T740 1530Q746 1504 749 1477T753 1422Q753 1403 743 1335T718 1174T686 982Q665 968 623 968T558 982Q542 1080 527 1174T501
1335T491 1422ZM91 1422Q91 1450 94 1477T104 1530Q129 1544 158 1552T222 1561Q256 1561 286 1553T340 1530Q346 1504 349 1477T353 1422Q353 1403 343 1335T318 1174T286 982Q265 968 223 968T158 982Q142 1080 127 1174T101 1335T91 1422Z" />
<glyph unicode="#" horiz-adv-x="1365" d="M195 25Q215 16 245 11T309 6Q342 6 373 11T426 25L709 1290Q690 1300 660 1304T595 1309Q563 1309 532 1305T479 1290L195 25ZM670 25Q689 16 720 11T784 6Q817 6 848 11T901 25L1185 1290Q1165 1300 1135 1304T1071
1309Q1039 1309 1008 1305T954 1290L670 25ZM1215 286Q1231 333 1231 391Q1231 450 1215 496H57Q41 453 41 391Q41 330 57 286H1215ZM1315 820Q1332 865 1332 925Q1332 985 1315 1030H158Q142 986 142 925Q142 864 158 820H1315Z" />
<glyph unicode="$" horiz-adv-x="1080" d="M514 48Q429 48 346 67T194 114T84 172Q85 206 98 246T134 320T183 370Q252 325 341 293T509 260Q579 259 622 289T666 374Q667 416 641 452T548 512L368 577Q260 617 189 690T117 881Q117 984 167 1061T306 1181T504
1225Q629 1225 728 1199T905 1132Q905 1079 880 1024T814 934Q741 971 668 991T530 1012Q463 1012 425 984T387 908Q387 861 419 837T506 790L679 726Q796 683 867 599T939 384Q939 284 886 208T737 90T514 48ZM502 -126Q442 -126 404 -116V130H599V-116Q564 -126
502 -126ZM423 1139V1389Q443 1394 469 1396T521 1399Q546 1399 573 1397T619 1389V1139H423Z" />
<glyph unicode="%" horiz-adv-x="1900" d="M1808 398Q1808 208 1733 92T1477 -25Q1357 -25 1285 28T1180 177T1148 398Q1148 524 1180 618T1285 766T1477 819Q1597 819 1669 766T1775 618T1808 398ZM1364 398Q1364 329 1372 270T1405 175T1479 139Q1528 139 1552
174T1585 269T1593 398Q1593 468 1585 526T1553 619T1479 655Q1430 655 1405 620T1372 526T1364 398ZM753 872Q753 682 678 565T423 448Q302 448 230 502T125 651T93 872Q93 998 125 1092T231 1240T423 1293Q542 1293 614 1240T720 1092T753 872ZM309 872Q309 802
317 743T349 649T423 613Q473 613 497 648T530 743T538 872Q538 942 530 1000T498 1093T423 1129Q374 1129 350 1094T317 1000T309 872ZM1184 1286Q1218 1295 1269 1297T1368 1296T1437 1286L727 0Q694 -9 643 -11T544 -10T474 0L1184 1286Z" />
<glyph unicode="&amp;" horiz-adv-x="1280" d="M1024 832Q1080 832 1133 841T1225 867Q1242 847 1251 813T1260 743Q1260 673 1214 641T1090 609H624Q536 609 479 579T393 497T365 380Q365 279 416 229T547 178Q623 178 683 205T780 263V485Q780 533 782 601T788
731H1030Q1035 670 1037 602T1039 486V312Q1039 244 1042 157T1052 0Q1029 -8 998 -11T931 -15Q897 -15 865 -12T810 -3L792 82Q732 33 650 3T477 -28Q350 -28 264 24T133 164T89 359Q89 473 140 559T272 695T437 745V714Q356 717 291 759T187 873T148 1033Q148
1138 199 1219T347 1347T575 1394Q685 1394 790 1376T972 1331Q974 1281 956 1225T903 1131Q837 1152 764 1168T613 1185Q520 1185 472 1136T424 1012Q424 926 477 879T645 832H1024Z" />
<glyph unicode="&apos;" horiz-adv-x="454" d="M87 1422Q87 1450 90 1477T100 1530Q125 1544 154 1552T218 1561Q252 1561 282 1553T336 1530Q342 1504 345 1477T349 1422Q349 1403 339 1335T314 1174T282 982Q261 968 219 968T154 982Q138 1080 123 1174T97 1335T87
1422Z" />
<glyph unicode="(" horiz-adv-x="708" d="M396 547Q396 398 426 242T517 -63T673 -341Q648 -394 607 -428T520 -479Q389 -352 300 -180T166 181T121 547Q121 724 166 913T300 1274T520 1573Q566 1557 607 1523T673 1434Q578 1306 517 1158T426 853T396 547Z" />
<glyph unicode=")" horiz-adv-x="708" d="M311 547Q311 398 282 242T191 -63T35 -341Q60 -394 101 -428T188 -479Q320 -352 408 -180T542 181T587 547Q587 724 542 913T409 1274T188 1573Q143 1557 102 1523T35 1434Q130 1306 191 1158T281 853T311 547Z" />
<glyph unicode="*" horiz-adv-x="1025" d="M404 1461Q429 1471 470 1474T553 1475T621 1461L616 1340Q614 1272 594 1201T556 1064Q537 1042 512 1042Q487 1042 469 1064Q451 1129 431 1200T409 1340L404 1461ZM80 1068Q78 1095 87 1135T113 1214T148 1274L260
1233Q325 1210 386 1168T505 1089Q521 1063 512 1042Q509 1030 501 1021T477 1009Q411 1010 337 1013T197 1036L80 1068ZM353 640Q327 646 292 667T225 715T178 766L252 861Q294 916 353 962T464 1049Q493 1055 512 1042Q533 1026 534 999Q512 935 486 866T420
740L353 640ZM844 766Q831 743 801 716T735 667T671 638L604 739Q565 795 540 865T491 998Q493 1028 512 1042Q522 1049 534 1051T560 1049Q613 1008 671 961T771 860L844 766ZM877 1272Q895 1253 911 1215T937 1137T945 1068L828 1034Q763 1016 688 1014T548 1009Q521
1017 512 1042Q505 1063 519 1088Q576 1127 638 1167T764 1231L877 1272Z" />
<glyph unicode="+" horiz-adv-x="1080" d="M119 740Q108 691 108 633Q108 573 119 526H310Q343 526 373 527T436 528H644Q676 528 706 527T770 526H961Q972 575 972 633Q972 686 961 740H770Q737 740 707 739T644 738H436Q404 738 374 739T310 740H119ZM426 858Q426
825 427 794T428 732V536Q428 504 427 474T426 411V203Q455 198 483 196T543 194Q572 194 599 196T654 203V411Q654 444 653 474T652 536V732Q652 763 653 794T654 858V1064Q627 1070 598 1071T540 1073Q510 1073 483 1072T426 1064V858Z" />
<glyph unicode="," horiz-adv-x="565" d="M423 232Q435 199 441 163T447 87Q447 -2 411 -87T302 -240T119 -342Q85 -325 68 -289T54 -217Q125 -190 174 -137T231 -17Q209 -12 185 -5T147 13Q139 29 133 61T127 120Q127 147 132 181T147 232Q171 246 210 255T286
264Q321 264 361 255T423 232Z" />
<glyph unicode="-" horiz-adv-x="727" d="M98 429Q92 455 90 485T87 536Q87 557 89 587T98 644H629Q636 618 638 588T640 536Q640 516 638 486T629 429H98Z" />
<glyph unicode="." horiz-adv-x="550" d="M114 123Q114 141 119 176T135 234Q160 248 199 257T276 266Q310 266 350 257T416 234Q427 211 432 176T437 123Q437 105 432 70T416 13Q392 -3 351 -11T276 -19Q239 -19 200 -11T135 13Q124 35 119 70T114 123Z" />
<glyph unicode="/" horiz-adv-x="874" d="M638 1429Q695 1424 754 1403T862 1345L232 -331Q175 -325 116 -305T8 -246L638 1429Z" />
<glyph unicode="0" horiz-adv-x="1080" d="M85 633Q85 804 111 939T229 1174Q284 1227 356 1260T541 1294Q654 1294 725 1261T851 1174Q943 1075 969 940T995 633Q995 462 969 327T851 92Q796 39 725 6T540 -28Q428 -28 357 5T229 92Q138 192 112 327T85 633ZM356
633Q356 483 368 389T411 245Q431 208 465 191T540 174Q583 174 616 190T669 245Q697 294 710 388T724 633Q724 785 711 878T669 1021Q649 1058 616 1075T540 1092Q499 1092 465 1075T411 1021Q383 972 370 879T356 633Z" />
<glyph unicode="1" horiz-adv-x="1080" d="M726 356Q726 316 725 277T724 195V104H473V195Q473 237 472 276T471 356V681Q471 718 474 778T482 901T485 1007L479 1266Q513 1273 544 1275T603 1277Q631 1277 661 1275T726 1266V356ZM351 216Q373 216 414 215T477
214H720Q742 214 786 215T851 216H974Q986 163 986 108Q986 56 974 0H179Q166 54 166 108Q166 165 179 216H351ZM96 871Q244 963 337 1063T479 1266L571 1063Q543 985 484 918T351 801T206 718Q167 738 136 780T96 871Z" />
<glyph unicode="2" horiz-adv-x="1080" d="M115 978Q142 1064 199 1136T341 1251T533 1294Q719 1294 829 1188T940 908Q940 818 906 749T817 622T696 509L548 390Q503 352 461 313T391 239T362 180L354 -1H195Q159 39 130 80T101 170Q101 227 134 285T222 403T340
517L547 694Q603 742 638 794T673 913Q673 987 628 1033T508 1079Q431 1079 379 1024T301 896Q254 898 197 919T115 978ZM973 224Q973 95 935 47T805 -1H212L140 160Q209 183 304 197T493 217T654 224H973Z" />
<glyph unicode="3" horiz-adv-x="1080" d="M708 404Q708 496 652 546T507 596Q477 596 445 589T386 568Q351 587 323 627T286 708Q345 732 413 748T582 765Q692 765 781 724T924 600T977 394Q977 291 939 212T834 80T683 -1T509 -28Q375 -28 269 12T94 111Q104
157 135 204T206 283Q261 241 328 213T475 184Q577 184 642 241T708 404ZM694 818Q656 780 607 747T511 691T429 652L286 708L502 927Q520 945 545 969T596 1018T638 1055L631 1066Q595 1057 536 1051T418 1044H157Q146 1074 143 1099T140 1142Q140 1168 144 1201T163
1266H873Q903 1210 915 1173T927 1108Q927 1051 875 996L694 818Z" />
<glyph unicode="4" horiz-adv-x="1080" d="M126 249Q101 288 85 331T68 410Q68 438 80 472T107 538L441 1280Q478 1288 526 1284T617 1265T681 1228L500 828Q479 780 448 712T382 576T316 465L322 456Q361 460 412 462T507 466T569 468H827Q859 468 878 469T931
470H1010Q1015 445 1015 421T1016 374Q1016 349 1013 315T1000 252H931Q898 252 879 252T827 252H578Q546 252 514 251T450 249H126ZM576 126Q576 158 577 189T578 252V433Q578 444 577 474T576 519V628Q576 723 623 778T753 833H818L829 822V594Q829 561 828 530T827
468V252Q827 221 828 190T829 126V0Q796 -6 764 -8T702 -10Q672 -10 641 -8T576 0V126Z" />
<glyph unicode="5" horiz-adv-x="1080" d="M416 864Q413 822 406 781T383 700Q333 681 273 671T151 658L183 1251L413 1212Q418 1183 421 1136T425 1043T424 971L416 864ZM102 105Q109 144 140 196T210 277Q270 235 332 210T470 185Q531 185 583 211T667 289T699
422Q699 503 667 551T584 620T477 642Q425 642 375 623T280 568Q245 575 207 601T151 658Q191 698 250 741T386 815T551 845Q745 845 856 733T968 434Q968 276 899 174T720 22T491 -28Q373 -28 272 8T102 105ZM900 1266Q911 1235 915 1207T919 1158Q919 1047 805
1047H470Q420 1047 364 1048T261 1053T192 1059L183 1251L198 1266H900Z" />
<glyph unicode="6" horiz-adv-x="1080" d="M553 -28Q457 -28 391 -3T286 56T227 112Q213 129 191 161T146 251T107 399T91 625Q91 832 152 982T333 1213T623 1294Q717 1294 796 1276T931 1227Q928 1177 906 1127T844 1046Q805 1063 755 1075T643 1087Q542 1087
481 1039T392 906T364 714V523Q364 465 371 410T393 308T432 231Q452 206 482 188T556 169Q646 169 689 235T732 406Q732 491 711 541T652 614T563 636Q514 636 465 616T373 559T295 470L248 606Q279 669 333 724T463 814T631 849Q793 849 893 747T994 423Q994
283 935 182T776 26T553 -28Z" />
<glyph unicode="7" horiz-adv-x="1080" d="M945 1266Q961 1230 976 1184T992 1105Q992 1084 982 1057T951 1000Q855 872 787 762T675 546T605 328T567 83L560 0Q534 -5 500 -8T427 -11Q393 -11 358 -8T293 0L301 89Q317 268 375 444T527 779T746 1056L738 1066Q715
1060 675 1056T591 1049T507 1045T448 1044H126Q113 1085 113 1134Q113 1169 119 1203T137 1266H945Z" />
<glyph unicode="8" horiz-adv-x="1080" d="M79 320Q79 414 126 489T247 618T401 698L580 625Q456 577 400 499T344 338Q344 255 398 206T539 156Q597 156 640 179T708 243T732 337Q732 390 706 432T633 505T525 557L482 573Q370 614 287 664T159 785T113 953Q113
1050 168 1127T320 1249T539 1294Q668 1294 763 1252T911 1134T964 960Q964 879 923 816T816 709T679 644L508 719Q606 753 658 813T710 950Q710 1019 662 1062T538 1106Q467 1106 419 1064T370 954Q370 886 423 843T568 770L611 756Q721 718 809 663T948 528T1000
335Q1000 222 936 141T765 16T528 -28Q326 -28 203 64T79 320Z" />
<glyph unicode="9" horiz-adv-x="1080" d="M527 1294Q624 1294 689 1269T795 1211T853 1154Q867 1137 889 1105T934 1015T973 867T989 641Q989 434 928 284T747 53T457 -28Q363 -28 285 -10T149 39Q152 89 174 139T236 220Q275 204 325 192T437 179Q539 179 600
227T688 360T716 552V743Q716 801 709 857T687 959T648 1035Q628 1060 598 1078T524 1097Q434 1097 391 1031T348 860Q348 776 369 725T428 652T517 630Q567 630 615 650T707 707T785 796L832 660Q801 598 747 543T617 453T450 418Q287 418 187 519T86 843Q86 983
145 1084T304 1240T527 1294Z" />
<glyph unicode=":" horiz-adv-x="564" d="M121 123Q121 141 126 176T142 234Q167 248 206 257T283 266Q317 266 357 257T423 234Q434 211 439 176T444 123Q444 105 439 70T423 13Q399 -3 358 -11T283 -19Q246 -19 207 -11T142 13Q131 35 126 70T121 123ZM121 760Q121
778 126 813T142 871Q167 885 206 894T283 903Q317 903 357 894T423 871Q434 848 439 813T444 760Q444 742 439 707T423 650Q399 634 358 626T283 618Q246 618 207 626T142 650Q131 672 126 707T121 760Z" />
<glyph unicode=";" horiz-adv-x="572" d="M678 232Q690 199 696 163T702 87Q702 -2 666 -87T557 -240T374 -342Q340 -325 323 -289T309 -217Q380 -190 429 -137T486 -17Q464 -12 440 -5T402 13Q394 29 388 61T382 120Q382 147 387 181T402 232Q426 246 465 255T541
264Q576 264 616 255T678 232ZM125 760Q125 778 130 813T146 871Q171 885 210 894T287 903Q321 903 361 894T427 871Q438 848 443 813T448 760Q448 742 443 707T427 650Q403 634 362 626T287 618Q250 618 211 626T146 650Q135 672 130 707T125 760Z" />
<glyph unicode="&lt;" horiz-adv-x="1080" d="M839 1130Q888 1104 921 1048T958 927L539 710Q510 695 459 673T380 639V625Q408 615 459 593T539 555L958 337Q953 275 919 217T838 132L115 530Q104 575 103 630T115 732L839 1130Z" />
<glyph unicode="=" horiz-adv-x="1080" d="M119 317Q112 343 110 373T108 424Q108 445 110 475T119 532H961Q968 505 970 475T972 424Q972 403 970 373T961 317H119ZM119 739Q112 765 110 795T108 846Q108 867 110 897T119 954H961Q968 928 970 898T972 846Q972
825 970 795T961 739H119Z" />
<glyph unicode="&gt;" horiz-adv-x="1073" d="M237 135Q190 163 156 219T118 338L537 556Q567 572 617 594T697 626V640Q668 651 618 673T537 710L118 928Q124 991 158 1049T239 1134L962 734Q973 691 974 635T962 532L237 135Z" />
<glyph unicode="?" horiz-adv-x="817" d="M12 1285Q94 1333 195 1364T409 1395Q597 1395 699 1297T802 1041Q802 897 727 803T541 649L418 583L400 405Q378 398 354 395T304 392Q280 392 253 395T202 405L188 703L209 730L313 779Q407 825 467 881T527 1013Q527
1083 482 1125T351 1167Q286 1167 225 1147T107 1096Q71 1124 43 1179T12 1285ZM304 246Q340 246 375 238T435 216Q444 200 449 168T455 110Q455 86 450 54T435 5Q411 -10 376 -17T304 -25Q224 -25 172 5Q163 21 158 53T152 110Q152 135 157 167T172 216Q224 246
304 246Z" />
<glyph unicode="@" horiz-adv-x="1930" d="M1359 321Q1359 257 1376 230T1433 202Q1476 202 1514 239T1575 361T1599 593Q1599 771 1525 900T1315 1099T997 1170Q851 1170 732 1117T527 966T395 737T349 447Q349 234 420 92T622 -121T927 -192Q1032 -192 1132
-173T1325 -117Q1357 -151 1374 -202T1392 -297Q1325 -324 1244 -346T1076 -380T908 -392Q670 -392 485 -301T194 -23T88 447Q88 646 155 813T345 1104T633 1296T997 1364Q1183 1364 1340 1311T1612 1158T1792 913T1857 586Q1857 389 1794 261T1633 71T1429 9Q1335
9 1264 48T1154 154T1115 303V737Q1091 758 1061 770T991 783Q930 783 893 740T839 624T823 464Q823 337 852 269T953 200Q994 200 1036 225T1114 291T1167 375L1259 255Q1235 198 1179 140T1049 42T894 2Q790 2 718 59T609 217T571 453Q571 601 619 717T762 901T991
968Q1103 968 1201 925T1359 823V321Z" />
<glyph unicode="A" horiz-adv-x="1251" d="M475 1366Q506 1371 551 1373T630 1376Q662 1376 707 1374T783 1365L1222 17Q1194 1 1151 -7T1068 -16Q1004 -16 969 13T908 128L727 726Q702 812 673 918T620 1113H608Q598 1063 583 1003T551 883T521 777L282 -2Q257
-8 228 -10T167 -12Q135 -12 98 -7T37 6L28 20L475 1366ZM474 307Q462 307 439 307T393 308T357 309H222L304 521H423Q435 521 456 521T499 522T532 523H704Q717 523 738 523T781 522T815 521H938L1007 309H872Q860 309 837 309T790 308T754 307H474Z" />
<glyph unicode="B" horiz-adv-x="1220" d="M180 1369Q295 1371 405 1373T619 1376Q762 1376 863 1335T1018 1214T1072 1013Q1072 939 1039 875T948 768T819 718V749Q901 746 973 697T1091 566T1136 388Q1136 262 1081 173T916 37T648 -10Q529 -10 415 -8T180 -3L166
11V1355L180 1369ZM431 183Q487 184 539 184T635 185Q730 185 779 219T847 304T865 400Q865 447 845 497T773 583T628 619H328V815H607Q687 815 730 843T790 914T807 999Q807 1043 791 1084T732 1153T609 1180Q575 1180 525 1180T431 1182V183Z" />
<glyph unicode="C" horiz-adv-x="1213" d="M892 857Q894 936 873 1010T797 1132T644 1180Q501 1180 434 1051T367 676Q367 446 446 326T669 206Q768 206 853 248T1017 352Q1058 325 1096 276T1144 179Q1088 123 1006 76T826 0T621 -28Q470 -28 367 32T202 194T113
421T85 677Q85 928 163 1086T369 1320T652 1395Q804 1395 916 1340T1089 1193T1150 991Q1150 916 1112 879T997 842Q968 842 944 846T892 857Z" />
<glyph unicode="D" horiz-adv-x="1316" d="M1229 683Q1229 566 1213 459T1151 258T1010 90Q965 54 902 32T773 0T652 -11Q569 -11 494 -10T343 -7T180 -3L166 11V1355L180 1369Q266 1372 342 1373T493 1375T652 1376Q707 1376 773 1366T903 1334T1010 1275Q1103
1201 1149 1108T1212 907T1229 683ZM952 683Q952 766 941 851T900 1006T810 1120T652 1164Q595 1164 545 1165T434 1166V201Q494 202 544 202T652 201Q750 201 809 244T899 359T941 516T952 683Z" />
<glyph unicode="E" horiz-adv-x="1139" d="M165 1353L178 1366H428V1146Q428 1104 429 1074T430 1003V342Q430 309 429 282T428 219V-4H319Q247 -4 206 39T165 156V1353ZM899 798Q907 773 910 742T914 688Q914 665 911 635T899 578H560Q536 578 495 578T411 579T337
581V795Q368 796 411 796T495 797T560 798H899ZM1013 1366Q1019 1336 1020 1310T1021 1260Q1021 1237 1016 1204T1000 1140H560Q536 1140 495 1140T411 1142T337 1144V1366H1013ZM1057 222Q1057 107 1022 52T881 -4H337V213Q394 216 447 219T568 222H1057Z" />
<glyph unicode="F" horiz-adv-x="1057" d="M435 0Q402 -6 368 -8T303 -10Q274 -10 237 -8T166 0V1354L180 1366H433V1266Q433 1186 434 1104T435 944V0ZM1004 1366Q1011 1344 1014 1315T1017 1262Q1017 1196 981 1167T871 1138H599Q521 1138 454 1139T325 1141V1366H1004ZM890
794Q897 770 900 738T904 684Q904 661 901 630T890 573H495Q455 573 411 574T333 576V791Q366 792 410 793T495 794H890Z" />
<glyph unicode="G" horiz-adv-x="1298" d="M1180 1249Q1174 1190 1136 1136T1057 1054Q984 1105 894 1137T715 1169Q611 1169 531 1119T406 960T361 671Q361 422 453 305T724 187Q826 187 910 208T1044 246L1183 56Q1124 35 1044 16T870 -16T678 -28Q520 -28 408
24T224 171T119 394T85 674Q85 860 136 996T276 1220T475 1351T703 1394Q834 1394 959 1355T1180 1249ZM930 389Q930 459 934 529T954 656L1183 579V56L930 52V389ZM1001 748Q1103 748 1143 702T1183 579V522H800Q741 522 706 545T670 636Q670 664 676 694T690
748H1001Z" />
<glyph unicode="H" horiz-adv-x="1362" d="M540 591Q528 591 508 591T467 592T433 593Q394 593 353 592T272 591V818Q312 818 353 817T433 816Q446 816 466 816T507 817T540 818H822Q834 818 854 818T896 817T928 816Q968 816 1008 817T1089 818V591Q1049 591
1009 592T928 593Q917 593 896 593T855 592T822 591H540ZM435 0Q403 -6 366 -8T300 -10Q274 -10 236 -8T166 0V1366Q197 1372 235 1374T300 1376Q328 1376 365 1374T435 1366V964Q435 922 434 890T433 816V593Q433 553 434 520T435 445V0ZM926 445Q926 487 927
520T928 593V816Q928 857 927 889T926 964V1366Q959 1372 995 1374T1060 1376Q1087 1376 1125 1374T1195 1366V0Q1162 -6 1127 -8T1063 -10Q1033 -10 996 -8T926 0V445Z" />
<glyph unicode="I" horiz-adv-x="610" d="M171 1366Q201 1372 239 1374T304 1376Q333 1376 369 1374T439 1366V0Q406 -6 370 -8T304 -10Q278 -10 240 -8T171 0V1366Z" />
<glyph unicode="J" horiz-adv-x="920" d="M115 265Q159 239 210 221T312 203Q428 203 468 272T508 481V1366Q539 1372 577 1374T643 1376Q671 1376 707 1374T776 1366V511Q776 397 759 300T694 132T561 20T339 -20Q261 -20 175 2T20 66Q29 118 53 171T115 265Z" />
<glyph unicode="K" horiz-adv-x="1218" d="M166 1366Q197 1372 235 1374T300 1376Q328 1376 365 1374T435 1366V0Q403 -6 366 -8T300 -10Q274 -10 236 -8T166 0V1366ZM1195 68Q1169 28 1119 7T1016 -15Q940 -15 907 24T848 142L757 404Q721 508 673 550T545 593Q507
593 444 590T298 580V749H669Q777 749 840 718T941 632T1003 502L1098 235Q1116 185 1130 155T1159 105T1195 68ZM820 1276Q847 1326 876 1350T967 1375Q1001 1375 1043 1373T1125 1367L1141 1347L870 862Q819 769 741 716T537 662H298V814Q350 816 407 817T515
819Q549 819 564 832T599 881L820 1276Z" />
<glyph unicode="L" horiz-adv-x="1035" d="M434 -4H321Q250 -4 208 38T165 157V1364L178 1377H278Q357 1377 395 1337T434 1207V-4ZM988 228Q988 98 946 47T806 -4H321L179 191Q291 211 406 219T616 228H988Z" />
<glyph unicode="M" horiz-adv-x="1642" d="M234 1365Q277 1372 329 1374T415 1377Q450 1377 496 1375T585 1365L738 810Q744 789 754 745T777 648T799 546T814 468H827Q832 497 842 546T865 648T888 745T904 810L1057 1365Q1102 1372 1147 1374T1227 1377Q1262
1377 1313 1375T1408 1365L1514 3Q1485 -4 1448 -7T1378 -11Q1347 -11 1318 -9T1259 -2L1221 639Q1218 702 1215 779T1209 934T1205 1073H1193L958 205Q928 200 889 198T820 195Q793 195 753 197T683 205L449 1073H437Q436 1011 434 934T428 780T421 639L382 -2Q353
-7 323 -9T263 -11Q231 -11 194 -8T128 3L234 1365Z" />
<glyph unicode="N" horiz-adv-x="1377" d="M166 1362Q198 1369 247 1372T325 1376Q353 1376 397 1374T483 1366L414 1058L395 1053Q401 975 405 878T413 684T416 507V0Q383 -6 351 -8T294 -10Q269 -10 234 -8T166 0V1362ZM522 775Q486 851 456 923T402 1056L277
1202L483 1366L846 592Q884 509 917 432T975 295L1110 151L891 0L522 775ZM1210 1365V4Q1178 -3 1129 -6T1048 -10Q1018 -10 976 -8T891 0L962 293L983 298Q976 385 971 486T964 682T962 846V1213Q962 1302 996 1339T1110 1377H1197L1210 1365Z" />
<glyph unicode="O" horiz-adv-x="1325" d="M366 684Q366 599 377 511T419 348T508 227T663 181Q758 181 816 227T906 348T947 511T958 684Q958 769 948 856T906 1018T817 1139T663 1185Q567 1185 509 1139T419 1019T377 857T366 684ZM85 684Q85 892 147 1052T338
1303T663 1394Q860 1394 988 1303T1178 1051T1240 684Q1240 475 1177 315T987 63T663 -28Q466 -28 338 64T147 316T85 684Z" />
<glyph unicode="P" horiz-adv-x="1158" d="M1093 915Q1093 764 1032 662T864 507T618 454H321V655Q352 657 409 658T521 661T601 662Q690 662 737 703T800 802T817 915Q817 969 801 1027T737 1126T601 1167Q565 1167 523 1167T435 1169V0Q403 -6 366 -8T300 -10Q274
-10 236 -8T166 0V1355L180 1369Q300 1371 405 1373T618 1376Q756 1376 863 1326T1031 1173T1093 915Z" />
<glyph unicode="Q" horiz-adv-x="1322" d="M361 684Q361 599 372 511T415 348T505 229T661 183Q756 183 815 228T905 348T947 510T958 684Q958 770 947 858T905 1020T815 1139T661 1185Q565 1185 506 1140T415 1020T373 858T361 684ZM85 684Q85 891 146 1051T335
1302T661 1394Q860 1394 987 1302T1176 1050T1237 683Q1237 560 1213 444T1137 236T1008 88T819 31Q786 8 750 -10T664 -28Q462 -28 335 64T146 316T85 684ZM573 56L827 140L994 22Q1052 -19 1094 -41T1172 -71T1246 -81Q1244 -173 1192 -223T1072 -273Q1013 -273
969 -255T888 -205L573 56Z" />
<glyph unicode="R" horiz-adv-x="1216" d="M1106 953Q1106 859 1071 785T978 661T857 588Q910 569 946 522T1005 411L1079 211Q1098 158 1120 123T1173 64Q1147 29 1097 7T993 -16Q920 -16 886 24T824 143L739 381Q718 441 679 482T554 524H323V728Q364 730 421
732T533 736T616 737Q703 737 749 768T813 849T831 953Q831 1010 813 1059T749 1139T616 1170Q580 1170 530 1170T432 1172V0Q400 -6 364 -8T298 -10Q273 -10 235 -8T166 0V1355L180 1369Q300 1371 413 1373T635 1376Q774 1376 880 1330T1046 1190T1106 953Z" />
<glyph unicode="S" horiz-adv-x="1113" d="M45 121Q50 179 81 234T152 324Q238 270 344 231T556 191Q659 191 711 238T763 350Q763 400 730 448T610 532L369 632Q244 685 166 770T88 991Q88 1108 149 1199T316 1342T558 1394Q692 1394 809 1360T1005 1285Q1002
1227 978 1172T912 1081Q835 1118 737 1147T560 1176Q462 1176 413 1130T363 1025Q363 973 398 938T503 872L746 772Q837 734 905 678T1010 549T1047 388Q1047 270 991 176T821 27T538 -28Q415 -28 283 11T45 121Z" />
<glyph unicode="T" horiz-adv-x="1002" d="M26 1142Q20 1172 18 1201T16 1253Q16 1277 18 1306T26 1366H982Q989 1344 992 1316T996 1262Q996 1196 961 1169T852 1142H758Q738 1142 699 1143T638 1144H369Q348 1144 309 1143T248 1142H26ZM369 996Q369 1037 369
1069T370 1144V1254H636V1144Q636 1102 637 1070T638 996V0Q604 -6 568 -8T504 -10Q474 -10 438 -8T369 0V996Z" />
<glyph unicode="U" horiz-adv-x="1343" d="M1195 492Q1195 325 1132 209T952 33T671 -28Q507 -28 390 32T210 209T147 492V1364L161 1377H261Q339 1377 377 1337T416 1207V491Q416 341 477 264T671 187Q803 187 864 264T926 491V1366Q959 1372 994 1374T1057 1376Q1084
1376 1124 1374T1195 1366V492Z" />
<glyph unicode="V" horiz-adv-x="1182" d="M907 1366Q935 1372 965 1374T1023 1376Q1049 1376 1084 1372T1146 1359L1157 1343L772 -1Q725 -6 669 -8T561 -11Q484 -11 442 14T378 113L28 1342Q66 1358 107 1370T191 1382Q249 1382 283 1351T336 1250L516 607Q531
553 545 492T573 370T597 253Q602 230 617 230L907 1366Z" />
<glyph unicode="W" horiz-adv-x="1756" d="M45 1351Q77 1365 115 1373T189 1382Q258 1382 290 1351T336 1236L440 641Q450 582 461 509T483 366T499 248Q501 230 505 227T518 223L708 1339Q748 1346 795 1348T881 1351Q922 1351 969 1349T1053 1339L1228 248Q1231
230 1235 227T1249 223Q1256 281 1267 356T1290 507T1314 644L1447 1366Q1476 1372 1507 1374T1567 1376Q1599 1376 1633 1372T1695 1359L1708 1342L1433 2Q1386 -4 1319 -7T1200 -11Q1140 -11 1094 10T1035 114L954 596Q936 705 918 834T885 1075H870Q855 964
835 835T794 596L688 1Q640 -4 578 -7T462 -11Q398 -11 351 10T288 115L45 1351Z" />
<glyph unicode="X" horiz-adv-x="1204" d="M66 1324Q106 1352 153 1367T241 1383Q296 1383 334 1361T411 1278L1178 42Q1138 14 1092 -1T1003 -17Q948 -17 909 6T831 90L66 1324ZM878 1366Q898 1371 927 1374T989 1377Q1029 1377 1067 1370T1130 1354L1137 1339L717
652L608 531L290 0Q270 -5 240 -8T176 -11Q137 -11 99 -4T33 13L26 29L491 781L600 902L878 1366Z" />
<glyph unicode="Y" horiz-adv-x="1047" d="M390 590H659V0Q626 -6 590 -8T525 -10Q499 -10 460 -8T390 0V590ZM789 1366Q817 1373 845 1375T900 1377Q935 1377 969 1372T1031 1358L1043 1341L642 389H410L6 1335Q44 1356 87 1368T171 1381Q228 1381 259 1355T314
1271L439 962Q463 904 485 834T527 693H538Q551 739 566 788T599 885T632 970L789 1366Z" />
<glyph unicode="Z" horiz-adv-x="1142" d="M592 951Q622 995 667 1051T751 1155L745 1161Q715 1157 674 1154T587 1149T502 1146T435 1145H132Q126 1169 124 1191T121 1235Q121 1270 126 1301T140 1366H996Q1014 1304 1021 1272T1031 1225T1034 1198Q1034 1175
1027 1150T1002 1099L529 420Q499 376 456 321T373 219L379 213Q443 219 519 222T650 226H808Q884 226 941 238T1039 269Q1046 243 1052 210T1058 145Q1058 72 1010 36T878 0H116Q102 59 96 90T87 137T85 164Q85 190 93 218T118 270L592 951Z" />
<glyph unicode="[" horiz-adv-x="740" d="M197 1530L454 1439V-331L197 -399V1530ZM213 -414L197 -399L219 -203L657 -215Q664 -231 670 -261T677 -323Q677 -339 675 -361T667 -397L213 -414ZM667 1528Q672 1513 674 1491T677 1453Q677 1423 671 1392T657 1345L219
1333L197 1530L213 1544L667 1528Z" />
<glyph unicode="\" horiz-adv-x="874" d="M642 -331Q699 -324 759 -303T866 -246L237 1429Q179 1424 120 1403T13 1345L642 -331Z" />
<glyph unicode="]" horiz-adv-x="740" d="M543 1530L286 1439V-331L543 -399V1530ZM527 -414L543 -399L522 -203L84 -215Q78 -231 71 -261T64 -323Q64 -339 66 -361T73 -397L527 -414ZM73 1528Q68 1513 66 1491T64 1453Q64 1423 71 1392T84 1345L522 1333L543
1530L527 1544L73 1528Z" />
<glyph unicode="^" horiz-adv-x="1060" d="M989 612Q965 606 931 603T860 600Q826 600 793 603T737 612L608 905Q599 928 585 964T558 1038T537 1097H523Q515 1075 502 1038T476 965T452 905L324 612Q300 606 268 603T200 600Q164 600 130 603T71 612L390 1296Q413
1302 452 1305T533 1308Q573 1308 610 1306T670 1296L989 612Z" />
<glyph unicode="_" horiz-adv-x="1096" d="M-1 -333Q-8 -308 -10 -280T-12 -234Q-12 -216 -10 -188T-1 -133H1097Q1103 -159 1105 -181T1108 -234Q1108 -286 1097 -333H-1Z" />
<glyph unicode="`" horiz-adv-x="796" d="M332 1510Q282 1494 232 1449T165 1351L521 1079Q555 1089 586 1117T631 1182L332 1510Z" />
<glyph unicode="a" horiz-adv-x="1020" d="M73 271Q73 389 126 464T268 575T463 611Q513 611 582 608T710 591V422Q662 433 599 435T486 438Q407 438 368 398T329 289Q329 238 359 204T442 170Q508 170 579 217T700 350L738 172Q700 128 649 82T530 4T372 -28Q271
-28 205 17T106 131T73 271ZM945 119Q937 84 912 44T859 -15Q783 -8 734 28T661 115T629 220V659Q629 737 592 773T483 810Q413 810 335 789T178 740Q149 772 132 824T110 926Q172 952 248 972T403 1003T548 1015Q641 1015 718 981T842 873T889 677V269Q889 220
901 182T945 119Z" />
<glyph unicode="b" horiz-adv-x="1063" d="M393 50H137V1458L150 1471H249Q327 1471 360 1435T393 1310V50ZM990 510Q991 342 930 224T762 45T515 -17Q413 -17 316 1T137 50L263 246Q321 210 384 192T519 173Q584 173 629 211T699 324T723 506Q723 660 681 729T569
798Q511 800 450 761T350 651L312 854Q348 894 395 930T504 988T639 1011Q757 1011 834 947T951 769T990 510Z" />
<glyph unicode="c" horiz-adv-x="946" d="M647 580Q649 651 638 706T596 792T502 824Q420 824 381 744T342 493Q342 323 393 252T540 180Q604 180 663 208T771 272Q804 253 835 208T875 123Q807 55 708 14T499 -28Q391 -28 312 11T179 120T100 286T74 493Q74 635
110 735T209 899T349 991T507 1021Q595 1021 665 996T784 926T858 824T884 704Q884 637 850 604T754 570Q721 570 697 572T647 580Z" />
<glyph unicode="d" horiz-adv-x="1069" d="M928 285Q928 232 942 188T984 119Q976 84 951 44T898 -15Q782 -5 728 76T673 268V1458L686 1471H787Q866 1471 897 1435T928 1310V285ZM76 485Q76 660 131 777T275 952T468 1011Q568 1011 648 971T797 884L760 690Q702
736 637 774T510 812Q458 812 421 775T364 664T343 483Q343 378 363 312T417 216T492 185Q533 185 581 208T674 287T743 440L800 275Q786 200 734 131T603 17T427 -28Q310 -28 232 37T115 218T76 485Z" />
<glyph unicode="e" horiz-adv-x="997" d="M240 413V596H669V621Q669 678 653 726T601 803T505 832Q418 832 379 760T339 550V471Q339 390 354 323T414 217T544 177Q616 177 683 196T813 245Q843 215 862 170T888 85Q814 32 712 2T503 -28Q377 -28 294 15T163 131T94
298T74 492Q74 642 120 762T262 951T507 1021Q638 1021 728 965T866 812T914 596Q914 538 909 499T893 413H240Z" />
<glyph unicode="f" horiz-adv-x="698" d="M315 991L697 995Q702 973 704 949T707 902Q707 879 705 854T697 806L312 812L16 806Q11 829 9 854T6 902Q6 925 8 949T16 995L315 991ZM188 883Q182 951 173 1017T164 1148Q164 1243 204 1317T318 1435T494 1479Q575
1479 650 1463T776 1428Q777 1383 761 1333T718 1254Q684 1264 641 1273T555 1282Q488 1282 451 1244T414 1131Q414 1073 425 1008T444 880V0Q384 -10 314 -10Q247 -10 188 0V883Z" />
<glyph unicode="g" horiz-adv-x="1064" d="M986 874Q958 851 944 806T930 708V149Q930 21 919 -64T885 -206T831 -302Q778 -370 686 -405T477 -441Q384 -441 287 -422T116 -375Q116 -328 134 -272T182 -183Q245 -212 317 -228T453 -244Q540 -244 588 -213T656
-128T676 -5V726Q676 837 730 917T900 1008Q927 990 953 950T986 874ZM76 495Q76 669 131 786T276 962T468 1021Q561 1021 627 992T739 919T814 833L774 616Q719 712 648 766T512 821Q431 821 387 737T343 493Q343 335 385 265T490 194Q560 194 625 240T731 368L768
179Q738 128 687 83T570 10T430 -19Q311 -19 232 46T115 227T76 495Z" />
<glyph unicode="h" horiz-adv-x="1087" d="M393 0Q339 -10 263 -10Q196 -10 137 0V1458L150 1471H251Q330 1471 361 1435T393 1310V0ZM957 231Q957 176 966 127T998 41Q969 18 926 2T834 -15Q757 -15 726 27T695 149V614Q695 698 674 736T590 775Q551 775 502
755T406 694T329 592V829Q397 902 486 956T684 1010Q776 1010 836 966T927 844T957 668V231Z" />
<glyph unicode="i" horiz-adv-x="570" d="M436 0Q409 -5 375 -7T306 -10Q272 -10 238 -8T174 0V696Q174 748 155 777T84 806H57Q46 850 46 896Q46 919 48 943T57 991Q99 996 140 998T210 1000H245Q334 1000 385 944T436 791V0ZM114 1267Q114 1292 119 1320T135
1371Q157 1383 193 1390T265 1398Q300 1398 338 1391T395 1371Q405 1348 410 1320T416 1267Q416 1243 411 1215T395 1164Q376 1152 338 1144T265 1136Q230 1136 193 1143T135 1164Q125 1187 120 1215T114 1267Z" />
<glyph unicode="j" horiz-adv-x="583" d="M448 6Q448 -126 421 -214T321 -357T111 -439Q84 -416 63 -371T38 -280Q95 -254 128 -226T176 -152T191 -34V696Q191 748 171 777T100 806H56Q45 850 45 896Q45 919 47 943T56 991Q103 996 150 998T226 1000H261Q349 1000
398 944T448 791V6ZM123 1267Q123 1292 128 1320T144 1371Q166 1383 202 1390T274 1398Q309 1398 347 1391T404 1371Q414 1348 419 1320T425 1267Q425 1243 420 1215T404 1164Q385 1152 347 1144T274 1136Q239 1136 202 1143T144 1164Q134 1187 129 1215T123 1267Z"
/>
<glyph unicode="k" horiz-adv-x="1026" d="M393 0Q366 -5 332 -7T263 -10Q194 -10 137 0V1458L150 1471H251Q330 1471 361 1435T393 1310V0ZM906 230Q930 161 951 125T1002 67Q972 32 925 9T826 -15Q765 -15 735 15T681 113L611 297Q585 368 555 391T469 415Q433
415 402 413T337 405L260 396V580H552Q661 580 735 535T847 386L906 230ZM758 660Q715 581 642 544T460 506H290V626L441 630Q461 630 472 636T494 662L633 899Q659 948 694 974T788 1000Q829 1000 862 1000T931 997L943 981L758 660Z" />
<glyph unicode="l" horiz-adv-x="607" d="M537 193Q546 165 552 132T558 66Q558 52 557 37T552 8Q512 2 460 -3T358 -9Q241 -9 188 50T134 234V1458L148 1471H249Q328 1471 359 1435T390 1310V285Q390 193 473 193H537Z" />
<glyph unicode="m" horiz-adv-x="1606" d="M248 1004Q325 1004 361 954T398 816V0Q371 -5 337 -7T268 -10Q235 -10 200 -8T137 0V990L150 1004H248ZM675 614Q675 706 646 741T571 776Q525 775 473 743T378 662T312 556V793Q358 850 414 900T535 980T670 1011Q757
1011 816 970T906 858T937 698V0Q909 -5 875 -7T807 -10Q773 -10 739 -8T675 0V614ZM1214 616Q1214 708 1184 742T1108 776Q1065 776 1014 744T918 661T844 548V809Q891 863 951 909T1078 983T1214 1011Q1302 1011 1360 969T1447 856T1476 695V231Q1476 176 1485
127T1517 41Q1489 18 1446 2T1354 -15Q1276 -15 1245 27T1214 149V616Z" />
<glyph unicode="n" horiz-adv-x="1093" d="M249 1004Q326 1004 362 954T398 816V0Q371 -5 337 -7T268 -10Q235 -10 200 -8T137 0V991L150 1004H249ZM962 231Q962 176 971 127T1004 41Q976 18 933 2T841 -15Q763 -15 732 27T701 149V614Q701 698 680 737T597 776Q556
776 507 756T412 695T334 592V830Q403 902 492 956T689 1011Q782 1011 842 967T932 845T962 668V231Z" />
<glyph unicode="o" horiz-adv-x="1042" d="M969 497Q969 340 918 222T768 38T521 -28Q373 -28 274 38T124 223T74 497Q74 653 124 771T274 955T521 1021Q669 1021 768 955T918 771T969 497ZM343 497Q343 409 357 335T410 215T521 169Q595 169 633 214T686 334T700
497Q700 584 686 659T634 779T521 825Q449 825 410 780T357 659T343 497Z" />
<glyph unicode="p" horiz-adv-x="1068" d="M224 1004Q305 1004 349 947T394 790V-270Q394 -357 362 -394T251 -431H150L137 -418V991L150 1004H224ZM993 509Q993 333 938 216T793 40T600 -19Q500 -19 420 23T272 110L309 303Q367 257 432 220T558 182Q610 182
647 219T705 330T726 510Q726 616 706 681T651 777T575 808Q535 808 487 785T395 707T324 552L268 718Q282 792 334 861T465 976T640 1021Q758 1021 836 956T954 775T993 509Z" />
<glyph unicode="q" horiz-adv-x="1068" d="M76 495Q76 669 131 786T276 962T468 1021Q561 1021 627 992T739 921T814 835L774 616Q719 712 648 766T512 821Q460 821 422 784T364 673T343 493Q343 335 386 265T490 194Q560 194 625 240T731 368L768 177Q738 127
687 82T570 9T430 -19Q311 -19 232 46T115 227T76 495ZM674 726Q674 837 728 917T898 1008Q925 990 951 950T985 874Q956 851 943 806T929 708V-418L916 -431H815Q736 -431 705 -394T674 -270V726Z" />
<glyph unicode="r" horiz-adv-x="766" d="M761 993Q761 944 745 873T696 747Q673 755 650 758T604 763Q556 763 519 744T454 693T404 617T365 526L332 568Q336 645 352 722T403 864T495 968T641 1007Q678 1007 705 1004T761 993ZM79 872Q87 907 112 948T165 1008Q285
993 345 907T415 686V0Q388 -5 354 -7T285 -10Q251 -10 217 -8T154 0V665Q154 750 129 801T79 872Z" />
<glyph unicode="s" horiz-adv-x="881" d="M50 71Q52 114 75 166T128 250Q193 216 264 190T407 164Q476 164 514 191T554 260Q554 296 528 325T446 373L332 414Q263 440 206 478T115 573T81 707Q81 804 128 874T259 983T452 1021Q540 1021 638 998T799 943Q801
912 792 875T766 807T726 757Q668 783 597 805T452 828Q400 828 371 803T341 739Q341 705 365 682T439 641L563 596Q676 556 749 482T823 284Q823 140 712 56T411 -28Q304 -28 211 1T50 71Z" />
<glyph unicode="t" horiz-adv-x="726" d="M177 1136Q177 1223 208 1260T318 1297H418L432 1283V283Q432 241 451 217T518 193H642Q663 132 663 66Q663 52 662 37T657 8Q604 1 540 -4T415 -9Q296 -9 237 50T177 234V1136ZM674 995Q686 949 686 902Q686 850 674
806L323 812L24 806Q14 852 14 902Q14 947 24 995L329 990L674 995Z" />
<glyph unicode="u" horiz-adv-x="1096" d="M955 283Q955 230 969 185T1011 117Q1003 81 978 43T925 -15Q809 -5 752 77T694 270V993Q721 998 755 1000T825 1003Q858 1003 892 1001T955 993V283ZM131 762Q131 817 122 866T89 951Q118 976 161 991T252 1007Q330
1007 361 966T392 844V378Q392 295 414 256T496 217Q537 217 586 237T681 299T758 400V164Q690 91 601 37T403 -18Q311 -18 251 26T161 149T131 325V762Z" />
<glyph unicode="v" horiz-adv-x="936" d="M690 993Q714 998 738 1000T786 1002Q821 1002 855 998T920 982L928 971Q896 859 857 726T777 458T701 204T636 0Q593 -6 542 -8T443 -11Q367 -11 325 14T258 121L1 973Q39 989 77 999T147 1009Q207 1009 243 983T295
891L406 486Q419 443 430 392T451 296T466 220Q469 208 473 206T486 204L690 993Z" />
<glyph unicode="w" horiz-adv-x="1480" d="M26 977Q66 994 103 1001T175 1009Q233 1009 260 982T298 900L374 532Q394 437 409 351T433 210Q436 194 449 194L587 985Q618 992 666 995T739 998Q766 998 816 995T894 985L1031 210Q1035 194 1047 194Q1062 271 1077
356T1111 532L1209 993Q1231 998 1259 1000T1313 1003Q1342 1003 1382 999T1449 982L1457 967L1219 -1Q1180 -6 1126 -8T1025 -11Q950 -11 909 11T854 117L809 362Q801 413 790 478T768 615T745 757H735Q725 688 713 617T690 481T668 365L600 0Q558 -5 502 -8T398
-11Q327 -11 286 13T227 119L26 977Z" />
<glyph unicode="x" horiz-adv-x="942" d="M40 953Q81 983 129 997T218 1011Q267 1011 295 991T350 931L931 42Q893 17 845 0T753 -17Q704 -17 673 3T616 62L40 953ZM655 993Q675 998 703 1000T758 1003Q796 1003 828 999T888 985L895 967L570 463L505 398L265
-1Q246 -6 218 -8T161 -11Q123 -11 88 -7T24 9L16 27L370 576L441 642L655 993Z" />
<glyph unicode="y" horiz-adv-x="966" d="M694 29Q654 -115 601 -219T459 -380T225 -437Q171 -437 107 -425T7 -401Q3 -356 19 -300T61 -214Q89 -223 135 -232T226 -242Q285 -242 326 -217T395 -147T443 -39L450 -12Q378 -11 333 14T268 105L20 973Q62 992 105
1000T181 1009Q228 1009 260 986T309 896L423 474Q435 435 445 384T466 283T482 197Q485 183 500 183L696 993Q718 998 747 1000T802 1003Q836 1003 871 1000T940 985L949 968L694 29Z" />
<glyph unicode="z" horiz-adv-x="896" d="M377 610Q413 657 457 708T538 801L532 810Q499 806 454 803T361 798T275 796H94Q89 816 87 838T85 877Q85 905 89 935T99 993H783Q801 943 810 908T819 846Q819 827 813 805T791 764L507 385Q473 340 433 290T355 198L361
189Q406 194 450 196T531 199H613Q670 199 722 205T814 230Q828 197 834 172T840 119Q840 65 808 33T691 0H91Q74 50 67 79T59 133Q59 155 67 180T97 233L377 610Z" />
<glyph unicode="{" horiz-adv-x="747" d="M87 638Q159 655 206 718T254 864V1194Q254 1345 340 1430T558 1536L677 1555Q694 1536 707 1504T725 1438T725 1382L615 1346Q572 1333 545 1294T517 1192V868Q517 769 470 683T345 561V545Q423 511 470 424T517 238V-86Q517
-149 544 -188T615 -240L725 -276Q731 -298 726 -331T707 -397T677 -450L558 -430Q426 -409 340 -324T254 -88V242Q254 325 207 388T87 469Q75 500 75 553T87 638Z" />
<glyph unicode="|" horiz-adv-x="526" d="M141 1547Q169 1554 205 1556T265 1559Q290 1559 322 1557T385 1547V-283Q355 -290 323 -292T265 -294Q242 -294 206 -292T141 -283V1547Z" />
<glyph unicode="}" horiz-adv-x="747" d="M660 638Q588 655 541 718T493 864V1194Q493 1345 407 1430T189 1536L70 1555Q53 1536 40 1504T22 1438T22 1382L132 1346Q174 1333 201 1294T229 1192V868Q229 769 276 683T401 561V545Q324 511 277 424T229 238V-86Q229
-149 202 -188T132 -240L22 -276Q17 -298 22 -331T40 -397T70 -450L189 -430Q321 -409 407 -324T493 -88V242Q493 325 540 388T660 469Q672 500 672 553T660 638Z" />
<glyph unicode="~" horiz-adv-x="1220" d="M740 668Q766 658 790 652T835 645Q868 645 897 660T950 704L994 752Q1036 749 1083 722T1149 651L1116 594Q1065 505 990 454T817 403Q775 403 731 413T642 444L479 517Q454 529 431 535T384 541Q351 541 323 526T270
482L225 433Q185 437 137 464T70 535L104 592Q155 681 230 732T404 783Q445 783 489 772T578 742L740 668Z" />
<glyph unicode="&#xa0;" horiz-adv-x="440" />
<glyph unicode="&#xa1;" horiz-adv-x="597" d="M405 588Q419 392 435 197T451 -196V-373Q415 -382 360 -386T250 -386T158 -372V-193Q158 3 175 197T206 588Q232 596 258 598T305 600Q324 600 352 598T405 588ZM305 742Q225 742 174 771Q165 788 160 821T154 878Q154
902 159 934T174 983Q198 998 233 1005T305 1012Q341 1012 376 1005T436 983Q446 967 450 935T455 878Q455 854 451 821T436 771Q412 757 377 750T305 742Z" />
<glyph unicode="&#xa2;" horiz-adv-x="1080" d="M564 -53Q540 -53 513 -50T466 -43V262H662V-43Q642 -47 616 -50T564 -53ZM472 994V1309Q491 1313 518 1316T570 1319Q595 1319 621 1316T668 1309V994H472ZM572 133Q440 133 352 177T211 295T137 456T114 630Q114
808 181 919T354 1081T577 1133Q669 1133 741 1108T864 1039T942 941T969 828Q969 755 935 719T830 682Q808 682 784 685T738 694Q739 754 724 809T673 901T571 937Q474 937 426 859T378 630Q378 477 442 410T612 343Q676 343 741 372T855 443Q888 422 920 380T964
298Q923 248 859 211T720 154T572 133Z" />
<glyph unicode="&#xa3;" horiz-adv-x="1080" d="M170 0Q149 61 143 91T137 144Q137 181 157 208T199 262L223 288Q261 330 288 378T315 494Q315 575 293 642T247 777T224 925Q224 1026 274 1110T415 1246T631 1297Q736 1297 823 1258T973 1163Q963 1115 929 1066T850
992Q807 1030 756 1055T652 1080Q588 1080 537 1041T485 905Q485 847 502 788T535 661T552 515Q552 428 509 350T399 209L404 204Q478 212 567 214T755 216H987Q987 91 945 46T814 0H170ZM146 520Q137 558 137 613Q137 668 146 708L412 706L824 708Q829 689 831
664T834 615Q834 591 832 565T824 520L412 522L146 520Z" />
<glyph unicode="&#xa4;" horiz-adv-x="1080" d="M538 236Q422 236 332 286T192 425T141 632Q141 751 191 840T332 980T538 1030Q656 1030 745 980T886 841T937 632Q937 515 886 426T746 286T538 236ZM538 418Q625 418 665 480T706 632Q706 722 666 785T538 848Q452
848 412 785T372 632Q372 544 412 481T538 418ZM181 136Q142 158 106 195T45 272L261 510L421 350L181 136ZM261 752L45 991Q66 1031 104 1067T181 1126L418 912L261 752ZM820 754L660 915L899 1130Q938 1108 974 1071T1035 994L820 754ZM895 134L656 350L816 507L1031
270Q1009 231 973 195T895 134Z" />
<glyph unicode="&#xa5;" horiz-adv-x="1080" d="M413 442L68 1243Q106 1262 150 1275T236 1289Q322 1289 356 1191L453 948Q474 892 496 827T539 684H549Q571 754 596 824T642 948L770 1269Q796 1277 820 1279T868 1281Q900 1281 933 1278T1003 1265L1012 1245L659
442H413ZM537 -10Q513 -10 476 -8T407 0V519H664V0Q631 -6 597 -8T537 -10ZM130 299Q125 319 122 340T119 387Q119 411 122 433T130 474H942Q953 432 953 388Q953 343 942 299H130ZM130 611Q125 630 122 652T119 700Q119 724 122 746T130 788H406V611H130ZM665
611V788H942Q946 772 949 750T953 700Q953 676 950 654T942 611H665Z" />
<glyph unicode="&#xa6;" horiz-adv-x="514" d="M137 491Q165 498 200 500T259 503Q284 503 316 501T378 491V-283Q348 -290 316 -292T259 -294Q236 -294 201 -292T137 -283V491ZM137 1547Q165 1554 200 1556T259 1559Q284 1559 316 1557T378 1547V773Q348 766
316 764T259 762Q236 762 201 764T137 773V1547Z" />
<glyph unicode="&#xa7;" horiz-adv-x="986" d="M511 385Q577 409 627 457T678 571Q678 613 652 644T580 701T480 748L384 786Q312 815 254 855T162 953T128 1087Q128 1174 175 1243T308 1353T504 1394Q590 1394 677 1373T829 1322Q832 1275 810 1221T755 1141Q698
1165 636 1182T513 1200Q458 1200 423 1176T387 1108Q387 1072 413 1049T490 1005L605 957Q693 922 767 877T886 770T931 615Q931 534 884 464T760 342T593 260L511 385ZM478 786Q434 770 396 742T335 678T311 599Q311 558 336 527T406 471T510 422L605 385Q678
357 735 315T827 215T861 81Q861 -6 813 -75T678 -185T472 -226Q382 -226 288 -204T127 -142Q125 -95 148 -41T204 38Q257 13 327 -10T473 -33Q531 -33 566 -8T602 60Q602 96 576 121T500 166L384 213Q297 250 223 294T104 401T58 555Q58 637 105 706T229 828T396
911L478 786Z" />
<glyph unicode="&#xa8;" horiz-adv-x="796" d="M74 1241Q74 1261 77 1286T90 1332Q112 1345 143 1352T204 1359Q232 1359 264 1352T318 1332Q326 1311 330 1286T334 1241Q334 1222 330 1197T318 1151Q296 1138 264 1131T204 1123Q175 1123 144 1130T90 1151Q81
1171 78 1196T74 1241ZM462 1241Q462 1261 466 1286T478 1332Q500 1345 532 1352T592 1359Q621 1359 653 1352T706 1332Q715 1311 719 1286T723 1241Q723 1222 719 1197T706 1151Q685 1138 653 1131T592 1123Q564 1123 532 1130T478 1151Q470 1171 466 1196T462
1241Z" />
<glyph unicode="&#xa9;" horiz-adv-x="1591" d="M71 682Q71 835 126 967T279 1197T509 1351T795 1407Q948 1407 1079 1352T1310 1198T1464 967T1519 682Q1519 529 1464 397T1310 167T1080 14T795 -41Q641 -41 510 14T280 167T126 397T71 682ZM276 682Q276 568
314 469T421 296T586 179T795 136Q908 136 1003 178T1169 295T1277 469T1316 682Q1316 796 1278 895T1169 1069T1004 1187T795 1230Q681 1230 586 1187T422 1069T314 895T276 682ZM909 743Q910 787 901 828T866 896T792 923Q728 923 695 863T661 683Q661 571 705
513T829 454Q872 454 920 476T1009 525Q1036 509 1058 474T1086 407Q1039 359 957 326T796 292Q671 292 595 347T484 491T450 683Q450 825 502 911T636 1036T801 1076Q892 1076 958 1043T1061 955T1097 841Q1097 789 1070 761T986 733Q966 733 944 736T909 743Z"
/>
<glyph unicode="&#xaa;" horiz-adv-x="883" d="M79 703Q79 796 120 855T233 942T393 970Q435 970 490 966T595 957V814Q555 820 504 823T409 827Q353 827 323 798T293 716Q293 680 317 653T384 626Q434 626 493 666T593 770L628 628Q597 592 553 554T453 489T325
462Q245 462 191 496T108 586T79 703ZM800 587Q796 555 771 521T716 471Q625 479 574 541T522 710V1016Q522 1074 490 1099T415 1124Q354 1124 297 1110T172 1073Q148 1100 133 1139T115 1221Q190 1252 287 1273T468 1294Q543 1294 606 1267T709 1179T748 1023V710Q748
668 758 637T800 587Z" />
<glyph unicode="&#xab;" horiz-adv-x="1177" d="M840 515L1109 196Q1101 169 1077 141T1023 91T964 62L563 432Q550 464 550 510T563 588L958 961Q1001 951 1044 910T1100 826L840 515ZM345 515L614 196Q606 169 582 141T528 91T469 62L68 432Q55 464 55 510T68
588L463 961Q506 951 549 910T605 826L345 515Z" />
<glyph unicode="&#xac;" horiz-adv-x="1080" d="M109 751Q102 725 100 695T98 644Q98 625 100 594T109 536H617Q650 536 680 537T742 538L962 536V738L949 751H109ZM734 561Q735 529 734 495T732 428V280Q765 274 793 272T850 270Q880 270 908 272T962 280V651H732L734
561Z" />
<glyph unicode="&#xad;" horiz-adv-x="727" d="M98 429Q92 455 90 485T87 536Q87 557 89 587T98 644H629Q636 618 638 588T640 536Q640 516 638 486T629 429H98Z" />
<glyph unicode="&#xae;" horiz-adv-x="1195" d="M61 950Q61 1100 132 1222T324 1415T597 1487Q747 1487 868 1416T1061 1222T1133 950Q1133 800 1062 679T869 486T597 415Q446 415 325 486T132 678T61 950ZM221 950Q221 843 269 754T403 613T597 560Q705 560 790
612T924 754T974 950Q974 1058 925 1146T790 1288T597 1342Q489 1342 404 1289T270 1147T221 950ZM808 1065Q808 1006 777 974T708 931Q731 922 745 903T774 856L798 808Q807 791 818 775T843 750Q829 728 802 714T746 699Q717 699 699 714T664 760L619 850Q609
868 598 877T562 886H470V992Q496 993 535 993T591 994Q629 994 645 1011T662 1052Q662 1074 647 1090T597 1107Q580 1107 566 1107T535 1107V709Q508 701 465 701Q421 701 395 709V1203L401 1208Q454 1210 508 1211T610 1213Q717 1213 762 1170T808 1065Z" />
<glyph unicode="&#xaf;" horiz-adv-x="796" d="M104 1147Q91 1192 91 1244Q91 1295 104 1343H693Q700 1316 702 1296T705 1246Q705 1194 693 1147H104Z" />
<glyph unicode="&#xb0;" horiz-adv-x="772" d="M59 966Q59 1062 101 1136T218 1252T386 1294Q481 1294 554 1252T670 1136T713 966Q713 870 671 796T555 680T386 637Q292 637 218 679T102 796T59 966ZM246 966Q246 894 284 850T386 805Q449 805 486 849T523 966Q523
1037 486 1081T386 1126Q322 1126 284 1082T246 966Z" />
<glyph unicode="&#xb1;" horiz-adv-x="1080" d="M140 809Q134 781 132 761T130 712Q130 683 132 662T140 612H315Q347 612 377 613T438 614H642Q672 614 702 613T765 612H940Q946 641 948 662T950 712Q950 741 948 761T940 809H765Q733 809 703 808T642 807H438Q408
807 378 808T315 809H140ZM428 930Q428 897 429 865T430 800V622Q430 592 429 559T428 494V332Q456 326 484 324T541 322Q570 322 598 324T653 332V494Q653 525 652 558T651 622V800Q651 832 652 864T653 930V1103Q626 1110 598 1112T541 1114Q512 1114 484 1112T428
1103V930ZM140 0Q134 28 132 51T130 103Q130 132 132 153T140 204H940Q946 175 948 154T950 103Q950 75 948 52T940 0H140Z" />
<glyph unicode="&#xb2;" horiz-adv-x="829" d="M102 1289Q125 1383 202 1447T400 1511Q530 1511 610 1434T690 1241Q690 1167 661 1113T591 1022T520 962L434 901Q377 860 341 827T304 763V633H161Q121 681 106 709T91 766Q91 826 136 886T242 992L368 1089Q405
1117 436 1151T468 1235Q468 1275 444 1300T380 1324Q339 1323 310 1292T268 1218Q241 1219 207 1228T144 1254T102 1289ZM714 825Q714 742 699 701T654 646T584 633H193L169 762Q242 795 337 810T552 825H714Z" />
<glyph unicode="&#xb3;" horiz-adv-x="829" d="M492 912Q492 966 457 996T373 1026Q354 1026 337 1023T303 1012Q274 1025 249 1059T216 1127Q279 1144 340 1154T456 1164Q523 1164 582 1134T677 1046T713 910Q713 815 665 751T539 654T375 622Q287 622 215 648T94
714Q102 753 126 792T180 858Q218 832 262 814T361 796Q420 796 456 827T492 912ZM547 1198Q515 1171 456 1138T333 1085L216 1127L355 1257Q373 1273 395 1291T435 1322L431 1328Q404 1324 356 1321T279 1318H135Q130 1340 128 1359T125 1395Q125 1417 129 1443T144
1497H634Q649 1470 663 1435T678 1369Q678 1337 665 1316T625 1272L547 1198Z" />
<glyph unicode="&#xb4;" horiz-adv-x="796" d="M464 1510Q515 1494 564 1449T631 1351L274 1079Q241 1089 210 1117T164 1182L464 1510Z" />
<glyph unicode="&#xb5;" horiz-adv-x="1106" d="M229 468V335Q229 243 264 162T362 31T509 -19Q606 -19 673 36T775 174L757 392Q719 306 665 255T539 204Q469 204 432 250T394 375V468H229ZM963 993Q935 998 901 1000T832 1003Q798 1003 764 1001T702 993V271Q702
161 759 78T932 -15Q959 4 985 42T1019 117Q991 140 977 185T963 284V993ZM394 993Q339 1003 266 1003Q232 1003 198 1001T136 993V-192Q136 -231 129 -287T94 -385Q127 -410 166 -423T253 -437Q333 -437 355 -388T378 -261V162H394V993Z" />
<glyph unicode="&#xb6;" horiz-adv-x="1424" d="M562 124Q562 46 547 -7T491 -88T376 -115Q328 -115 276 -102T181 -74Q153 -112 138 -170T123 -266Q169 -284 245 -299T401 -315Q562 -315 654 -260T785 -95T825 174V1355L813 1368Q736 1371 676 1374T545 1377Q407
1377 300 1332T130 1188T67 935Q67 784 129 685T296 536T531 487H562V124ZM951 1353L965 1366H1218V-263Q1185 -270 1150 -272T1086 -274Q1060 -274 1021 -272T951 -263V1353ZM1086 1366H1379Q1387 1341 1390 1297T1390 1209T1379 1139H1313Q1277 1139 1242 1141T1172
1144H1086V1366Z" />
<glyph unicode="&#xb7;" horiz-adv-x="635" d="M166 528Q166 546 170 581T186 639Q209 653 246 662T318 671Q350 671 388 662T449 639Q460 616 465 581T470 528Q470 510 465 475T449 418Q427 402 389 394T318 386Q284 386 247 394T186 418Q175 440 171 475T166 528Z" />
<glyph unicode="&#xb8;" horiz-adv-x="796" d="M250 -152Q261 -119 284 -69T326 12H471Q460 -2 447 -27T427 -68Q505 -75 557 -123T610 -245Q610 -338 537 -397T350 -456Q302 -456 257 -443T185 -412Q187 -381 199 -348T232 -292Q250 -303 275 -311T328 -319Q369
-319 388 -300T408 -252Q408 -223 389 -204T334 -184Q322 -184 311 -186T290 -192Q278 -187 266 -176T250 -152Z" />
<glyph unicode="&#xb9;" horiz-adv-x="829" d="M564 731H352V1055Q352 1078 354 1117T359 1200T361 1279L359 1493Q387 1498 413 1500T463 1503Q488 1503 510 1501T564 1493V731ZM254 812Q273 812 304 812T352 811H564Q581 811 616 811T668 812H725Q731 791 733
768T736 722Q736 702 734 679T725 633H152Q147 656 145 678T143 722Q143 742 145 766T152 812H254ZM90 1211Q199 1276 258 1340T359 1493L432 1358Q403 1251 346 1187T187 1076Q151 1094 124 1134T90 1211Z" />
<glyph unicode="&#xba;" horiz-adv-x="870" d="M793 879Q793 783 768 698T676 548Q632 505 569 483T435 461Q362 461 300 482T194 548Q130 613 104 698T77 879Q77 973 103 1058T194 1207Q284 1294 435 1294Q506 1294 569 1273T676 1207Q740 1142 766 1058T793
879ZM296 879Q296 809 309 753T353 663T436 630Q488 630 517 663T560 752T573 879Q573 949 560 1005T518 1093T436 1126Q384 1126 354 1094T310 1005T296 879Z" />
<glyph unicode="&#xbb;" horiz-adv-x="1177" d="M337 509L67 828Q76 856 99 883T154 932T213 961L613 591Q627 560 627 514T613 437L218 62Q175 74 133 114T77 197L337 509ZM832 509L562 828Q571 856 594 883T649 932T708 961L1108 591Q1122 560 1122 514T1108
437L713 62Q670 74 628 114T572 197L832 509Z" />
<glyph unicode="&#xbc;" horiz-adv-x="2052" d="M564 600H352V924Q352 947 354 986T359 1069T361 1148L359 1362Q387 1367 413 1369T463 1372Q488 1372 510 1370T564 1362V600ZM254 681Q273 681 304 681T352 680H564Q581 680 616 680T668 681H725Q731 660 733
637T736 591Q736 571 734 548T725 502H152Q147 525 145 547T143 591Q143 611 145 635T152 681H254ZM90 1080Q199 1145 258 1209T359 1362L432 1227Q403 1120 346 1056T187 945Q151 963 124 1003T90 1080ZM1336 1366Q1371 1375 1422 1377T1521 1376T1590 1366L835
0Q802 -9 750 -11T651 -10T582 0L1336 1366ZM1350 149Q1332 180 1318 216T1303 279Q1303 299 1313 328T1331 373L1557 875Q1606 880 1666 867T1761 828L1637 560Q1624 532 1603 488T1558 400T1512 325L1515 321Q1543 325 1575 326T1636 327T1677 328H1863Q1878
328 1896 329T1930 330H1974Q1977 313 1979 292T1981 249Q1981 222 1978 195T1968 149H1924Q1911 149 1893 150T1862 151H1664Q1647 151 1620 150T1570 149H1350ZM1662 65Q1662 90 1663 110T1664 151V295Q1664 307 1663 327T1662 359V413Q1662 481 1700 525T1803
569H1856L1864 561V434Q1864 407 1863 380T1862 328V151Q1862 131 1863 111T1864 65V2Q1841 -3 1815 -6T1763 -9Q1738 -9 1712 -6T1662 2V65Z" />
<glyph unicode="&#xbd;" horiz-adv-x="2087" d="M564 600H352V924Q352 947 354 986T359 1069T361 1148L359 1362Q387 1367 413 1369T463 1372Q488 1372 510 1370T564 1362V600ZM254 681Q273 681 304 681T352 680H564Q581 680 616 680T668 681H725Q731 660 733
637T736 591Q736 571 734 548T725 502H152Q147 525 145 547T143 591Q143 611 145 635T152 681H254ZM90 1080Q199 1145 258 1209T359 1362L432 1227Q403 1120 346 1056T187 945Q151 963 124 1003T90 1080ZM1336 1366Q1371 1375 1422 1377T1521 1376T1590 1366L835
0Q802 -9 750 -11T651 -10T582 0L1336 1366ZM1360 656Q1383 750 1460 814T1658 878Q1788 878 1868 801T1948 608Q1948 534 1919 480T1849 389T1778 329L1692 268Q1635 227 1599 194T1562 130V0H1419Q1379 48 1364 76T1349 133Q1349 193 1394 253T1500 359L1626
456Q1663 484 1694 518T1726 602Q1726 642 1702 667T1638 691Q1597 690 1568 659T1526 585Q1499 586 1465 595T1402 621T1360 656ZM1972 192Q1972 109 1957 68T1912 13T1842 0H1451L1427 129Q1500 162 1595 177T1810 192H1972Z" />
<glyph unicode="&#xbe;" horiz-adv-x="2016" d="M492 781Q492 835 457 865T373 895Q354 895 337 892T303 881Q274 894 249 928T216 996Q279 1013 340 1023T456 1033Q523 1033 582 1003T677 915T713 779Q713 684 665 620T539 523T375 491Q287 491 215 517T94 583Q102
622 126 661T180 727Q218 701 262 683T361 665Q420 665 456 696T492 781ZM547 1067Q515 1040 456 1007T333 954L216 996L355 1126Q373 1142 395 1160T435 1191L431 1197Q404 1193 356 1190T279 1187H135Q130 1209 128 1228T125 1264Q125 1286 129 1312T144 1366H634Q649
1339 663 1304T678 1238Q678 1206 665 1185T625 1141L547 1067ZM1300 1366Q1335 1375 1386 1377T1485 1376T1554 1366L799 0Q766 -9 714 -11T615 -10T546 0L1300 1366ZM1313 149Q1295 180 1281 216T1266 279Q1266 299 1276 328T1294 373L1520 875Q1569 880 1629
867T1724 828L1600 560Q1587 532 1566 488T1521 400T1475 325L1478 321Q1506 325 1538 326T1599 327T1640 328H1826Q1841 328 1859 329T1893 330H1937Q1940 313 1942 292T1944 249Q1944 222 1941 195T1931 149H1887Q1874 149 1856 150T1825 151H1627Q1610 151 1583
150T1533 149H1313ZM1625 65Q1625 90 1626 110T1627 151V295Q1627 307 1626 327T1625 359V413Q1625 481 1663 525T1766 569H1819L1827 561V434Q1827 407 1826 380T1825 328V151Q1825 131 1826 111T1827 65V2Q1804 -3 1778 -6T1726 -9Q1701 -9 1675 -6T1625 2V65Z"
/>
<glyph unicode="&#xbf;" horiz-adv-x="817" d="M816 -297Q734 -345 633 -376T419 -407Q231 -407 129 -309T26 -53Q26 91 101 185T287 339L409 405L428 582Q450 590 475 593T524 596Q547 596 575 593T626 582L640 284L619 258L515 209Q422 163 362 107T301 -25Q301
-95 346 -137T477 -180Q541 -180 603 -159T721 -108Q757 -136 785 -191T816 -297ZM524 742Q488 742 453 749T393 772Q384 788 379 820T373 878Q373 902 378 934T393 983Q417 997 452 1005T524 1013Q604 1013 656 983Q665 967 670 935T675 878Q675 853 670 821T656
772Q604 742 524 742Z" />
<glyph unicode="&#xc0;" horiz-adv-x="1251" d="M475 1366Q506 1371 551 1373T630 1376Q662 1376 707 1374T783 1365L1222 17Q1194 1 1151 -7T1068 -16Q1004 -16 969 13T908 128L727 726Q702 812 673 918T620 1113H608Q598 1063 583 1003T551 883T521 777L282
-2Q257 -8 228 -10T167 -12Q135 -12 98 -7T37 6L28 20L475 1366ZM474 307Q462 307 439 307T393 308T357 309H222L304 521H423Q435 521 456 521T499 522T532 523H704Q717 523 738 523T781 522T815 521H938L1007 309H872Q860 309 837 309T790 308T754 307H474ZM451
1843Q428 1826 405 1793T364 1720T343 1639L802 1455Q835 1475 853 1512T878 1585L451 1843Z" />
<glyph unicode="&#xc1;" horiz-adv-x="1251" d="M475 1366Q506 1371 551 1373T630 1376Q662 1376 707 1374T783 1365L1222 17Q1194 1 1151 -7T1068 -16Q1004 -16 969 13T908 128L727 726Q702 812 673 918T620 1113H608Q598 1063 583 1003T551 883T521 777L282
-2Q257 -8 228 -10T167 -12Q135 -12 98 -7T37 6L28 20L475 1366ZM474 307Q462 307 439 307T393 308T357 309H222L304 521H423Q435 521 456 521T499 522T532 523H704Q717 523 738 523T781 522T815 521H938L1007 309H872Q860 309 837 309T790 308T754 307H474ZM830
1843Q853 1826 876 1793T916 1720T937 1639L478 1455Q449 1472 428 1511T403 1585L830 1843Z" />
<glyph unicode="&#xc2;" horiz-adv-x="1251" d="M475 1366Q506 1371 551 1373T630 1376Q662 1376 707 1374T783 1365L1222 17Q1194 1 1151 -7T1068 -16Q1004 -16 969 13T908 128L727 726Q702 812 673 918T620 1113H608Q598 1063 583 1003T551 883T521 777L282
-2Q257 -8 228 -10T167 -12Q135 -12 98 -7T37 6L28 20L475 1366ZM474 307Q462 307 439 307T393 308T357 309H222L304 521H423Q435 521 456 521T499 522T532 523H704Q717 523 738 523T781 522T815 521H938L1007 309H872Q860 309 837 309T790 308T754 307H474ZM739
1799L964 1582Q952 1542 919 1512T857 1472L627 1621L398 1472Q370 1482 337 1512T289 1582L516 1799Q539 1803 568 1806T627 1809Q657 1809 686 1806T739 1799Z" />
<glyph unicode="&#xc3;" horiz-adv-x="1251" d="M475 1366Q506 1371 551 1373T630 1376Q662 1376 707 1374T783 1365L1222 17Q1194 1 1151 -7T1068 -16Q1004 -16 969 13T908 128L727 726Q702 812 673 918T620 1113H608Q598 1063 583 1003T551 883T521 777L282
-2Q257 -8 228 -10T167 -12Q135 -12 98 -7T37 6L28 20L475 1366ZM474 307Q462 307 439 307T393 308T357 309H222L304 521H423Q435 521 456 521T499 522T532 523H704Q717 523 738 523T781 522T815 521H938L1007 309H872Q860 309 837 309T790 308T754 307H474ZM538
1564Q523 1572 508 1577T474 1582Q456 1582 436 1570T398 1533L378 1507Q341 1507 302 1529T248 1585L263 1621Q297 1695 355 1740T492 1786Q527 1786 559 1776T618 1752L717 1705Q733 1697 750 1692T784 1686Q802 1686 822 1697T860 1734L880 1761Q917 1760 957
1738T1010 1682L995 1647Q961 1573 903 1528T767 1482Q731 1482 698 1492T640 1515L538 1564Z" />
<glyph unicode="&#xc4;" horiz-adv-x="1251" d="M475 1366Q506 1371 551 1373T630 1376Q662 1376 707 1374T783 1365L1222 17Q1194 1 1151 -7T1068 -16Q1004 -16 969 13T908 128L727 726Q702 812 673 918T620 1113H608Q598 1063 583 1003T551 883T521 777L282
-2Q257 -8 228 -10T167 -12Q135 -12 98 -7T37 6L28 20L475 1366ZM474 307Q462 307 439 307T393 308T357 309H222L304 521H423Q435 521 456 521T499 522T532 523H704Q717 523 738 523T781 522T815 521H938L1007 309H872Q860 309 837 309T790 308T754 307H474ZM848
1485Q818 1485 787 1492T732 1514Q723 1536 720 1562T716 1606Q716 1625 719 1650T732 1699Q755 1712 786 1719T848 1727Q878 1727 909 1720T964 1699Q973 1676 976 1651T980 1606Q980 1588 977 1562T964 1514Q941 1500 910 1493T848 1485ZM408 1485Q378 1485 346
1492T291 1514Q283 1536 279 1562T275 1606Q275 1625 279 1650T291 1699Q314 1712 346 1719T408 1727Q438 1727 469 1720T524 1699Q533 1676 536 1651T540 1606Q540 1588 537 1562T524 1514Q501 1500 470 1493T408 1485Z" />
<glyph unicode="&#xc5;" horiz-adv-x="1251" d="M477 1377H780L1222 17Q1194 1 1151 -7T1068 -16Q1004 -16 969 13T908 128L727 726Q702 812 673 918T620 1113H608Q598 1063 583 1003T551 883T521 777L282 -2Q257 -8 228 -10T167 -12Q135 -12 98 -7T37 6L28 20L477
1377ZM474 307Q462 307 439 307T393 308T357 309H222L304 521H423Q435 521 456 521T499 522T532 523H704Q717 523 738 523T781 522T815 521H938L1007 309H872Q860 309 837 309T790 308T754 307H474ZM366 1569Q366 1670 438 1740T629 1811Q748 1811 820 1741T892
1569Q892 1469 820 1398T629 1327Q511 1327 439 1398T366 1569ZM529 1569Q529 1524 557 1494T629 1464Q674 1464 701 1494T729 1569Q729 1614 702 1644T629 1674Q585 1674 557 1644T529 1569Z" />
<glyph unicode="&#xc6;" horiz-adv-x="1763" d="M642 1342Q672 1356 719 1361T803 1366H975L792 1113H781Q751 1034 714 943T643 775L291 -1Q261 -8 229 -9T164 -11Q129 -11 92 -7T28 7L19 21L642 1342ZM524 307Q501 307 464 308T406 309H298L394 519H494Q515
519 545 520T598 521H701Q716 521 737 521T780 520T816 519H913V309H816Q803 309 782 309T739 308T702 307H524ZM790 1353L803 1366H1047V1146Q1047 1104 1048 1074T1049 1003V345Q1049 312 1048 283T1047 219V-4H942Q871 -4 831 39T790 156V1353ZM1522 798Q1531
773 1534 742T1537 688Q1537 665 1534 635T1522 578H1179Q1156 578 1116 578T1034 579T960 581V795Q992 796 1034 796T1116 797T1179 798H1522ZM1636 1366Q1643 1336 1644 1310T1645 1260Q1645 1237 1640 1204T1624 1140H1179Q1156 1140 1116 1140T1034 1142T960
1144V1366H1636ZM1681 222Q1681 94 1641 45T1504 -4H960V213Q1017 216 1068 219T1188 222H1681Z" />
<glyph unicode="&#xc7;" horiz-adv-x="1213" d="M892 857Q894 936 873 1010T797 1132T644 1180Q501 1180 434 1051T367 676Q367 446 446 326T669 206Q768 206 853 248T1017 352Q1058 325 1096 276T1144 179Q1088 123 1006 76T826 0T621 -28Q470 -28 367 32T202
194T113 421T85 677Q85 928 163 1086T369 1320T652 1395Q804 1395 916 1340T1089 1193T1150 991Q1150 916 1112 879T997 842Q968 842 944 846T892 857ZM510 -152Q521 -119 544 -69T586 12H731Q720 -2 707 -27T687 -68Q765 -75 817 -123T870 -245Q870 -338 797 -397T610
-456Q562 -456 517 -443T445 -412Q447 -381 459 -348T492 -292Q510 -303 535 -311T588 -319Q629 -319 648 -300T668 -252Q668 -223 649 -204T594 -184Q582 -184 571 -186T550 -192Q538 -187 526 -176T510 -152Z" />
<glyph unicode="&#xc8;" horiz-adv-x="1139" d="M165 1353L178 1366H428V1146Q428 1104 429 1074T430 1003V342Q430 309 429 282T428 219V-4H319Q247 -4 206 39T165 156V1353ZM899 798Q907 773 910 742T914 688Q914 665 911 635T899 578H560Q536 578 495 578T411
579T337 581V795Q368 796 411 796T495 797T560 798H899ZM1013 1366Q1019 1336 1020 1310T1021 1260Q1021 1237 1016 1204T1000 1140H560Q536 1140 495 1140T411 1142T337 1144V1366H1013ZM1057 222Q1057 107 1022 52T881 -4H337V213Q394 216 447 219T568 222H1057ZM420
1843Q397 1826 374 1793T333 1720T312 1639L771 1455Q804 1475 822 1512T847 1585L420 1843Z" />
<glyph unicode="&#xc9;" horiz-adv-x="1139" d="M165 1353L178 1366H428V1146Q428 1104 429 1074T430 1003V342Q430 309 429 282T428 219V-4H319Q247 -4 206 39T165 156V1353ZM899 798Q907 773 910 742T914 688Q914 665 911 635T899 578H560Q536 578 495 578T411
579T337 581V795Q368 796 411 796T495 797T560 798H899ZM1013 1366Q1019 1336 1020 1310T1021 1260Q1021 1237 1016 1204T1000 1140H560Q536 1140 495 1140T411 1142T337 1144V1366H1013ZM1057 222Q1057 107 1022 52T881 -4H337V213Q394 216 447 219T568 222H1057ZM799
1843Q822 1826 845 1793T885 1720T906 1639L447 1455Q418 1472 397 1511T372 1585L799 1843Z" />
<glyph unicode="&#xca;" horiz-adv-x="1139" d="M165 1353L178 1366H428V1146Q428 1104 429 1074T430 1003V342Q430 309 429 282T428 219V-4H319Q247 -4 206 39T165 156V1353ZM899 798Q907 773 910 742T914 688Q914 665 911 635T899 578H560Q536 578 495 578T411
579T337 581V795Q368 796 411 796T495 797T560 798H899ZM1013 1366Q1019 1336 1020 1310T1021 1260Q1021 1237 1016 1204T1000 1140H560Q536 1140 495 1140T411 1142T337 1144V1366H1013ZM1057 222Q1057 107 1022 52T881 -4H337V213Q394 216 447 219T568 222H1057ZM707
1799L932 1582Q920 1542 887 1512T825 1472L595 1621L366 1472Q338 1482 305 1512T257 1582L484 1799Q507 1803 536 1806T595 1809Q625 1809 654 1806T707 1799Z" />
<glyph unicode="&#xcb;" horiz-adv-x="1139" d="M165 1353L178 1366H428V1146Q428 1104 429 1074T430 1003V342Q430 309 429 282T428 219V-4H319Q247 -4 206 39T165 156V1353ZM899 798Q907 773 910 742T914 688Q914 665 911 635T899 578H560Q536 578 495 578T411
579T337 581V795Q368 796 411 796T495 797T560 798H899ZM1013 1366Q1019 1336 1020 1310T1021 1260Q1021 1237 1016 1204T1000 1140H560Q536 1140 495 1140T411 1142T337 1144V1366H1013ZM1057 222Q1057 107 1022 52T881 -4H337V213Q394 216 447 219T568 222H1057ZM817
1485Q787 1485 756 1492T701 1514Q692 1536 689 1562T685 1606Q685 1625 688 1650T701 1699Q724 1712 755 1719T817 1727Q847 1727 878 1720T933 1699Q942 1676 945 1651T949 1606Q949 1588 946 1562T933 1514Q910 1500 879 1493T817 1485ZM377 1485Q347 1485 315
1492T260 1514Q252 1536 248 1562T244 1606Q244 1625 248 1650T260 1699Q283 1712 315 1719T377 1727Q407 1727 438 1720T493 1699Q502 1676 505 1651T509 1606Q509 1588 506 1562T493 1514Q470 1500 439 1493T377 1485Z" />
<glyph unicode="&#xcc;" horiz-adv-x="610" d="M171 1366Q201 1372 239 1374T304 1376Q333 1376 369 1374T439 1366V0Q406 -6 370 -8T304 -10Q278 -10 240 -8T171 0V1366ZM126 1844Q103 1827 80 1794T39 1721T18 1640L477 1456Q510 1476 528 1513T553 1586L126 1844Z" />
<glyph unicode="&#xcd;" horiz-adv-x="610" d="M171 1366Q201 1372 239 1374T304 1376Q333 1376 369 1374T439 1366V0Q406 -6 370 -8T304 -10Q278 -10 240 -8T171 0V1366ZM506 1844Q529 1827 552 1794T592 1721T613 1640L154 1456Q125 1473 104 1512T79 1586L506 1844Z" />
<glyph unicode="&#xce;" horiz-adv-x="610" d="M171 1366Q201 1372 239 1374T304 1376Q333 1376 369 1374T439 1366V0Q406 -6 370 -8T304 -10Q278 -10 240 -8T171 0V1366ZM414 1800L639 1583Q627 1543 594 1513T532 1473L302 1622L73 1473Q45 1483 12 1513T-36
1583L191 1800Q214 1804 243 1807T302 1810Q332 1810 361 1807T414 1800Z" />
<glyph unicode="&#xcf;" horiz-adv-x="610" d="M171 1366Q201 1372 239 1374T304 1376Q333 1376 369 1374T439 1366V0Q406 -6 370 -8T304 -10Q278 -10 240 -8T171 0V1366ZM524 1486Q494 1486 463 1493T408 1515Q399 1537 396 1563T392 1607Q392 1626 395 1651T408
1700Q431 1713 462 1720T524 1728Q554 1728 585 1721T640 1700Q649 1677 652 1652T656 1607Q656 1589 653 1563T640 1515Q617 1501 586 1494T524 1486ZM84 1486Q54 1486 22 1493T-33 1515Q-41 1537 -45 1563T-49 1607Q-49 1626 -45 1651T-33 1700Q-10 1713 22 1720T84
1728Q114 1728 145 1721T200 1700Q209 1677 212 1652T216 1607Q216 1589 213 1563T200 1515Q177 1501 146 1494T84 1486Z" />
<glyph unicode="&#xd0;" horiz-adv-x="1347" d="M1260 684Q1260 567 1244 459T1181 258T1041 90Q997 54 934 32T804 0T684 -11Q601 -11 526 -10T374 -7T210 -3L197 11V1355L210 1369Q297 1372 373 1373T525 1375T684 1376Q738 1376 804 1366T933 1334T1041 1275Q1133
1201 1180 1108T1243 907T1260 684ZM982 684Q982 767 972 851T931 1006T841 1120T684 1164Q626 1164 573 1165T459 1166V201Q520 202 573 202T684 201Q782 201 841 245T931 360T972 517T982 684ZM53 583Q46 609 44 635T42 690Q42 717 44 746T53 802H740Q746 776
748 749T751 693Q751 633 740 583H53Z" />
<glyph unicode="&#xd1;" horiz-adv-x="1377" d="M166 1362Q198 1369 247 1372T325 1376Q353 1376 397 1374T483 1366L414 1058L395 1053Q401 975 405 878T413 684T416 507V0Q383 -6 351 -8T294 -10Q269 -10 234 -8T166 0V1362ZM522 775Q486 851 456 923T402 1056L277
1202L483 1366L846 592Q884 509 917 432T975 295L1110 151L891 0L522 775ZM1210 1365V4Q1178 -3 1129 -6T1048 -10Q1018 -10 976 -8T891 0L962 293L983 298Q976 385 971 486T964 682T962 846V1213Q962 1302 996 1339T1110 1377H1197L1210 1365ZM604 1564Q589 1572
574 1577T540 1582Q522 1582 502 1570T464 1533L444 1507Q407 1507 368 1529T314 1585L329 1621Q363 1695 421 1740T558 1786Q593 1786 625 1776T684 1752L783 1705Q799 1697 816 1692T850 1686Q868 1686 888 1697T926 1734L946 1761Q983 1760 1023 1738T1076 1682L1061
1647Q1027 1573 969 1528T833 1482Q797 1482 764 1492T706 1515L604 1564Z" />
<glyph unicode="&#xd2;" horiz-adv-x="1325" d="M366 684Q366 599 377 511T419 348T508 227T663 181Q758 181 816 227T906 348T947 511T958 684Q958 769 948 856T906 1018T817 1139T663 1185Q567 1185 509 1139T419 1019T377 857T366 684ZM85 684Q85 892 147 1052T338
1303T663 1394Q860 1394 988 1303T1178 1051T1240 684Q1240 475 1177 315T987 63T663 -28Q466 -28 338 64T147 316T85 684ZM484 1843Q461 1826 438 1793T397 1720T376 1639L835 1455Q868 1475 886 1512T911 1585L484 1843Z" />
<glyph unicode="&#xd3;" horiz-adv-x="1325" d="M366 684Q366 599 377 511T419 348T508 227T663 181Q758 181 816 227T906 348T947 511T958 684Q958 769 948 856T906 1018T817 1139T663 1185Q567 1185 509 1139T419 1019T377 857T366 684ZM85 684Q85 892 147 1052T338
1303T663 1394Q860 1394 988 1303T1178 1051T1240 684Q1240 475 1177 315T987 63T663 -28Q466 -28 338 64T147 316T85 684ZM864 1843Q887 1826 910 1793T950 1720T971 1639L512 1455Q483 1472 462 1511T437 1585L864 1843Z" />
<glyph unicode="&#xd4;" horiz-adv-x="1325" d="M366 684Q366 599 377 511T419 348T508 227T663 181Q758 181 816 227T906 348T947 511T958 684Q958 769 948 856T906 1018T817 1139T663 1185Q567 1185 509 1139T419 1019T377 857T366 684ZM85 684Q85 892 147 1052T338
1303T663 1394Q860 1394 988 1303T1178 1051T1240 684Q1240 475 1177 315T987 63T663 -28Q466 -28 338 64T147 316T85 684ZM772 1799L997 1582Q985 1542 952 1512T890 1472L660 1621L431 1472Q403 1482 370 1512T322 1582L549 1799Q572 1803 601 1806T660 1809Q690
1809 719 1806T772 1799Z" />
<glyph unicode="&#xd5;" horiz-adv-x="1325" d="M366 684Q366 599 377 511T419 348T508 227T663 181Q758 181 816 227T906 348T947 511T958 684Q958 769 948 856T906 1018T817 1139T663 1185Q567 1185 509 1139T419 1019T377 857T366 684ZM85 684Q85 892 147 1052T338
1303T663 1394Q860 1394 988 1303T1178 1051T1240 684Q1240 475 1177 315T987 63T663 -28Q466 -28 338 64T147 316T85 684ZM572 1564Q557 1572 542 1577T508 1582Q490 1582 470 1570T432 1533L412 1507Q375 1507 336 1529T282 1585L297 1621Q331 1695 389 1740T526
1786Q561 1786 593 1776T652 1752L751 1705Q767 1697 784 1692T818 1686Q836 1686 856 1697T894 1734L914 1761Q951 1760 991 1738T1044 1682L1029 1647Q995 1573 937 1528T801 1482Q765 1482 732 1492T674 1515L572 1564Z" />
<glyph unicode="&#xd6;" horiz-adv-x="1325" d="M366 684Q366 599 377 511T419 348T508 227T663 181Q758 181 816 227T906 348T947 511T958 684Q958 769 948 856T906 1018T817 1139T663 1185Q567 1185 509 1139T419 1019T377 857T366 684ZM85 684Q85 892 147 1052T338
1303T663 1394Q860 1394 988 1303T1178 1051T1240 684Q1240 475 1177 315T987 63T663 -28Q466 -28 338 64T147 316T85 684ZM882 1485Q852 1485 821 1492T766 1514Q757 1536 754 1562T750 1606Q750 1625 753 1650T766 1699Q789 1712 820 1719T882 1727Q912 1727
943 1720T998 1699Q1007 1676 1010 1651T1014 1606Q1014 1588 1011 1562T998 1514Q975 1500 944 1493T882 1485ZM442 1485Q412 1485 380 1492T325 1514Q317 1536 313 1562T309 1606Q309 1625 313 1650T325 1699Q348 1712 380 1719T442 1727Q472 1727 503 1720T558
1699Q567 1676 570 1651T574 1606Q574 1588 571 1562T558 1514Q535 1500 504 1493T442 1485Z" />
<glyph unicode="&#xd7;" horiz-adv-x="1080" d="M312 707Q334 685 357 662T402 618L524 495Q546 474 568 451T613 405L784 232Q836 255 877 297Q916 336 941 388L768 561Q746 583 723 605T677 650L556 771Q533 793 511 816T467 862L295 1035Q270 1024 247 1008T203
971Q183 950 167 927T139 878L312 707ZM467 405Q489 428 511 450T556 495L677 617Q699 639 722 661T768 706L941 878Q916 929 875 970Q855 990 832 1006T784 1033L613 860Q591 838 569 815T524 771L402 648Q380 627 357 604T312 559L139 388Q150 362 167 339T203
297Q223 278 246 261T295 231L467 405Z" />
<glyph unicode="&#xd8;" horiz-adv-x="1330" d="M874 1294L991 1497Q1036 1490 1084 1465T1160 1404L1022 1160L457 77L340 -127Q296 -120 248 -94T171 -35L310 210L874 1294ZM355 684Q355 599 367 510T413 344T507 222T665 175Q762 175 822 221T916 344T961 509T974
684Q974 769 962 858T916 1022T823 1144T665 1191Q568 1191 508 1145T414 1023T368 858T355 684ZM85 684Q85 890 148 1050T340 1302T665 1394Q863 1394 991 1302T1182 1049T1245 684Q1245 478 1182 318T991 65T665 -28Q467 -28 339 65T148 319T85 684Z" />
<glyph unicode="&#xd9;" horiz-adv-x="1343" d="M1195 492Q1195 325 1132 209T952 33T671 -28Q507 -28 390 32T210 209T147 492V1364L161 1377H261Q339 1377 377 1337T416 1207V491Q416 341 477 264T671 187Q803 187 864 264T926 491V1366Q959 1372 994 1374T1057
1376Q1084 1376 1124 1374T1195 1366V492ZM489 1843Q466 1826 443 1793T402 1720T381 1639L840 1455Q873 1475 891 1512T916 1585L489 1843Z" />
<glyph unicode="&#xda;" horiz-adv-x="1343" d="M1195 492Q1195 325 1132 209T952 33T671 -28Q507 -28 390 32T210 209T147 492V1364L161 1377H261Q339 1377 377 1337T416 1207V491Q416 341 477 264T671 187Q803 187 864 264T926 491V1366Q959 1372 994 1374T1057
1376Q1084 1376 1124 1374T1195 1366V492ZM868 1843Q891 1826 914 1793T954 1720T975 1639L516 1455Q487 1472 466 1511T441 1585L868 1843Z" />
<glyph unicode="&#xdb;" horiz-adv-x="1343" d="M1195 492Q1195 325 1132 209T952 33T671 -28Q507 -28 390 32T210 209T147 492V1364L161 1377H261Q339 1377 377 1337T416 1207V491Q416 341 477 264T671 187Q803 187 864 264T926 491V1366Q959 1372 994 1374T1057
1376Q1084 1376 1124 1374T1195 1366V492ZM777 1799L1002 1582Q990 1542 957 1512T895 1472L665 1621L436 1472Q408 1482 375 1512T327 1582L554 1799Q577 1803 606 1806T665 1809Q695 1809 724 1806T777 1799Z" />
<glyph unicode="&#xdc;" horiz-adv-x="1343" d="M1195 492Q1195 325 1132 209T952 33T671 -28Q507 -28 390 32T210 209T147 492V1364L161 1377H261Q339 1377 377 1337T416 1207V491Q416 341 477 264T671 187Q803 187 864 264T926 491V1366Q959 1372 994 1374T1057
1376Q1084 1376 1124 1374T1195 1366V492ZM886 1485Q856 1485 825 1492T770 1514Q761 1536 758 1562T754 1606Q754 1625 757 1650T770 1699Q793 1712 824 1719T886 1727Q916 1727 947 1720T1002 1699Q1011 1676 1014 1651T1018 1606Q1018 1588 1015 1562T1002 1514Q979
1500 948 1493T886 1485ZM446 1485Q416 1485 384 1492T329 1514Q321 1536 317 1562T313 1606Q313 1625 317 1650T329 1699Q352 1712 384 1719T446 1727Q476 1727 507 1720T562 1699Q571 1676 574 1651T578 1606Q578 1588 575 1562T562 1514Q539 1500 508 1493T446
1485Z" />
<glyph unicode="&#xdd;" horiz-adv-x="1047" d="M390 590H659V0Q626 -6 590 -8T525 -10Q499 -10 460 -8T390 0V590ZM789 1366Q817 1373 845 1375T900 1377Q935 1377 969 1372T1031 1358L1043 1341L642 389H410L6 1335Q44 1356 87 1368T171 1381Q228 1381 259 1355T314
1271L439 962Q463 904 485 834T527 693H538Q551 739 566 788T599 885T632 970L789 1366ZM731 1843Q754 1826 777 1793T817 1720T838 1639L379 1455Q350 1472 329 1511T304 1585L731 1843Z" />
<glyph unicode="&#xde;" horiz-adv-x="1163" d="M297 1165Q379 1168 457 1170T614 1173Q752 1173 859 1127T1029 982T1092 727Q1092 576 1030 477T860 329T614 280H297V482Q320 483 362 484T451 487T539 489T597 490Q686 490 733 527T798 619T816 727Q816 781
799 836T734 927T597 964Q571 964 517 965T403 967T297 968V1165ZM166 1366Q197 1372 235 1374T300 1376Q328 1376 365 1374T435 1366V0Q403 -6 366 -8T300 -10Q274 -10 236 -8T166 0V1366Z" />
<glyph unicode="&#xdf;" horiz-adv-x="1285" d="M326 948L327 753L28 748Q23 770 21 799T18 852Q18 875 20 902T28 952L326 948ZM200 1005Q200 1134 258 1222T419 1354T659 1399Q801 1399 906 1349T1069 1208T1127 994Q1127 955 1120 915T1096 836L817 816Q840
853 851 896T862 987Q862 1043 840 1091T773 1168T659 1198Q558 1198 512 1139T466 978V0Q437 -5 401 -7T332 -10Q301 -10 265 -8T200 0V1005ZM583 42Q585 84 606 138T658 224Q698 197 743 184T822 170Q881 170 916 198T951 271Q951 305 933 334T882 392L801 464Q767
495 738 529T691 602T673 688Q673 762 727 831T876 936L1096 835Q1019 817 985 778T951 704Q951 675 970 651T1008 609L1084 540Q1153 478 1190 410T1228 273Q1228 179 1181 112T1051 8T858 -28Q791 -28 716 -11T583 42Z" />
<glyph unicode="&#xe0;" horiz-adv-x="1020" d="M73 271Q73 389 126 464T268 575T463 611Q513 611 582 608T710 591V422Q662 433 599 435T486 438Q407 438 368 398T329 289Q329 238 359 204T442 170Q508 170 579 217T700 350L738 172Q700 128 649 82T530 4T372
-28Q271 -28 205 17T106 131T73 271ZM945 119Q937 84 912 44T859 -15Q783 -8 734 28T661 115T629 220V659Q629 737 592 773T483 810Q413 810 335 789T178 740Q149 772 132 824T110 926Q172 952 248 972T403 1003T548 1015Q641 1015 718 981T842 873T889 677V269Q889
220 901 182T945 119ZM383 1510Q333 1494 283 1449T216 1351L572 1079Q606 1089 637 1117T682 1182L383 1510Z" />
<glyph unicode="&#xe1;" horiz-adv-x="1020" d="M73 271Q73 389 126 464T268 575T463 611Q513 611 582 608T710 591V422Q662 433 599 435T486 438Q407 438 368 398T329 289Q329 238 359 204T442 170Q508 170 579 217T700 350L738 172Q700 128 649 82T530 4T372
-28Q271 -28 205 17T106 131T73 271ZM945 119Q937 84 912 44T859 -15Q783 -8 734 28T661 115T629 220V659Q629 737 592 773T483 810Q413 810 335 789T178 740Q149 772 132 824T110 926Q172 952 248 972T403 1003T548 1015Q641 1015 718 981T842 873T889 677V269Q889
220 901 182T945 119ZM626 1510Q677 1494 726 1449T793 1351L436 1079Q403 1089 372 1117T326 1182L626 1510Z" />
<glyph unicode="&#xe2;" horiz-adv-x="1020" d="M73 271Q73 389 126 464T268 575T463 611Q513 611 582 608T710 591V422Q662 433 599 435T486 438Q407 438 368 398T329 289Q329 238 359 204T442 170Q508 170 579 217T700 350L738 172Q700 128 649 82T530 4T372
-28Q271 -28 205 17T106 131T73 271ZM945 119Q937 84 912 44T859 -15Q783 -8 734 28T661 115T629 220V659Q629 737 592 773T483 810Q413 810 335 789T178 740Q149 772 132 824T110 926Q172 952 248 972T403 1003T548 1015Q641 1015 718 981T842 873T889 677V269Q889
220 901 182T945 119ZM615 1458L804 1207Q787 1166 751 1137T686 1098L502 1275L317 1098Q289 1107 253 1136T199 1207L388 1458Q411 1464 440 1468T502 1472Q533 1472 562 1468T615 1458Z" />
<glyph unicode="&#xe3;" horiz-adv-x="1020" d="M73 271Q73 389 126 464T268 575T463 611Q513 611 582 608T710 591V422Q662 433 599 435T486 438Q407 438 368 398T329 289Q329 238 359 204T442 170Q508 170 579 217T700 350L738 172Q700 128 649 82T530 4T372
-28Q271 -28 205 17T106 131T73 271ZM945 119Q937 84 912 44T859 -15Q783 -8 734 28T661 115T629 220V659Q629 737 592 773T483 810Q413 810 335 789T178 740Q149 772 132 824T110 926Q172 952 248 972T403 1003T548 1015Q641 1015 718 981T842 873T889 677V269Q889
220 901 182T945 119ZM417 1189Q408 1194 391 1201T355 1208Q326 1208 308 1190T281 1160L261 1133Q225 1134 188 1156T137 1213L154 1251Q186 1323 241 1368T368 1413Q407 1413 439 1402T490 1380L573 1336Q582 1331 599 1324T635 1316Q663 1316 681 1334T709
1365L729 1392Q765 1392 801 1370T852 1312L835 1274Q803 1199 747 1156T620 1113Q585 1113 555 1123T499 1146L417 1189Z" />
<glyph unicode="&#xe4;" horiz-adv-x="1020" d="M73 271Q73 389 126 464T268 575T463 611Q513 611 582 608T710 591V422Q662 433 599 435T486 438Q407 438 368 398T329 289Q329 238 359 204T442 170Q508 170 579 217T700 350L738 172Q700 128 649 82T530 4T372
-28Q271 -28 205 17T106 131T73 271ZM945 119Q937 84 912 44T859 -15Q783 -8 734 28T661 115T629 220V659Q629 737 592 773T483 810Q413 810 335 789T178 740Q149 772 132 824T110 926Q172 952 248 972T403 1003T548 1015Q641 1015 718 981T842 873T889 677V269Q889
220 901 182T945 119ZM171 1241Q171 1261 174 1286T187 1332Q209 1345 240 1352T301 1359Q329 1359 361 1352T415 1332Q423 1311 427 1286T431 1241Q431 1222 427 1197T415 1151Q393 1138 361 1131T301 1123Q272 1123 241 1130T187 1151Q178 1171 175 1196T171
1241ZM559 1241Q559 1261 563 1286T575 1332Q597 1345 629 1352T689 1359Q718 1359 750 1352T803 1332Q812 1311 816 1286T820 1241Q820 1222 816 1197T803 1151Q782 1138 750 1131T689 1123Q661 1123 629 1130T575 1151Q567 1171 563 1196T559 1241Z" />
<glyph unicode="&#xe5;" horiz-adv-x="1020" d="M73 271Q73 389 126 464T268 575T463 611Q513 611 582 608T710 591V422Q662 433 599 435T486 438Q407 438 368 398T329 289Q329 238 359 204T442 170Q508 170 579 217T700 350L738 172Q700 128 649 82T530 4T372
-28Q271 -28 205 17T106 131T73 271ZM945 119Q937 84 912 44T859 -15Q783 -8 734 28T661 115T629 220V659Q629 737 592 773T483 810Q413 810 335 789T178 740Q149 772 132 824T110 926Q172 952 248 972T403 1003T548 1015Q641 1015 718 981T842 873T889 677V269Q889
220 901 182T945 119ZM232 1324Q232 1225 304 1153T495 1081Q613 1081 685 1153T758 1324Q758 1424 686 1495T495 1566Q377 1566 305 1495T232 1324ZM396 1324Q396 1369 423 1399T495 1429Q540 1429 567 1399T594 1324Q594 1280 567 1250T495 1219Q451 1219 424
1249T396 1324Z" />
<glyph unicode="&#xe6;" horiz-adv-x="1536" d="M73 272Q73 389 126 464T268 575T463 611Q517 611 584 607T710 591V420Q661 431 598 434T486 438Q407 438 368 398T329 289Q329 239 359 205T442 170Q511 170 585 217T708 358L764 172Q726 124 669 78T538 2T372
-28Q271 -28 205 17T106 131T73 272ZM629 491V660Q629 737 592 773T484 810Q415 810 336 789T178 740Q149 772 132 824T110 926Q203 964 319 989T531 1015Q627 1015 701 978T816 865T858 675V491H629ZM791 413V596H1215V619Q1215 677 1200 725T1149 803T1054 832Q966
832 928 760T889 547V471Q889 390 904 323T963 217T1093 177Q1164 177 1230 196T1359 245Q1389 216 1408 171T1433 85Q1359 32 1258 2T1051 -28Q842 -28 736 108T629 491Q628 588 655 682T736 853T870 975T1055 1021Q1186 1021 1276 965T1413 812T1460 596Q1460
538 1455 499T1439 413H791Z" />
<glyph unicode="&#xe7;" horiz-adv-x="946" d="M647 580Q649 651 638 706T596 792T502 824Q420 824 381 744T342 493Q342 323 393 252T540 180Q604 180 663 208T771 272Q804 253 835 208T875 123Q807 55 708 14T499 -28Q391 -28 312 11T179 120T100 286T74 493Q74
635 110 735T209 899T349 991T507 1021Q595 1021 665 996T784 926T858 824T884 704Q884 637 850 604T754 570Q721 570 697 572T647 580ZM362 -152Q373 -119 396 -69T438 12H583Q572 -2 559 -27T539 -68Q617 -75 669 -123T722 -245Q722 -338 649 -397T462 -456Q414
-456 369 -443T297 -412Q299 -381 311 -348T344 -292Q362 -303 387 -311T440 -319Q481 -319 500 -300T520 -252Q520 -223 501 -204T446 -184Q434 -184 423 -186T402 -192Q390 -187 378 -176T362 -152Z" />
<glyph unicode="&#xe8;" horiz-adv-x="997" d="M240 413V596H669V621Q669 678 653 726T601 803T505 832Q418 832 379 760T339 550V471Q339 390 354 323T414 217T544 177Q616 177 683 196T813 245Q843 215 862 170T888 85Q814 32 712 2T503 -28Q377 -28 294 15T163
131T94 298T74 492Q74 642 120 762T262 951T507 1021Q638 1021 728 965T866 812T914 596Q914 538 909 499T893 413H240ZM398 1510Q348 1494 298 1449T231 1351L587 1079Q621 1089 652 1117T697 1182L398 1510Z" />
<glyph unicode="&#xe9;" horiz-adv-x="997" d="M240 413V596H669V621Q669 678 653 726T601 803T505 832Q418 832 379 760T339 550V471Q339 390 354 323T414 217T544 177Q616 177 683 196T813 245Q843 215 862 170T888 85Q814 32 712 2T503 -28Q377 -28 294 15T163
131T94 298T74 492Q74 642 120 762T262 951T507 1021Q638 1021 728 965T866 812T914 596Q914 538 909 499T893 413H240ZM641 1510Q692 1494 741 1449T808 1351L451 1079Q418 1089 387 1117T341 1182L641 1510Z" />
<glyph unicode="&#xea;" horiz-adv-x="997" d="M240 413V596H669V621Q669 678 653 726T601 803T505 832Q418 832 379 760T339 550V471Q339 390 354 323T414 217T544 177Q616 177 683 196T813 245Q843 215 862 170T888 85Q814 32 712 2T503 -28Q377 -28 294 15T163
131T94 298T74 492Q74 642 120 762T262 951T507 1021Q638 1021 728 965T866 812T914 596Q914 538 909 499T893 413H240ZM630 1458L819 1207Q802 1166 766 1137T701 1098L517 1275L332 1098Q304 1107 268 1136T214 1207L403 1458Q426 1464 455 1468T517 1472Q548
1472 577 1468T630 1458Z" />
<glyph unicode="&#xeb;" horiz-adv-x="997" d="M240 413V596H669V621Q669 678 653 726T601 803T505 832Q418 832 379 760T339 550V471Q339 390 354 323T414 217T544 177Q616 177 683 196T813 245Q843 215 862 170T888 85Q814 32 712 2T503 -28Q377 -28 294 15T163
131T94 298T74 492Q74 642 120 762T262 951T507 1021Q638 1021 728 965T866 812T914 596Q914 538 909 499T893 413H240ZM186 1241Q186 1261 189 1286T202 1332Q224 1345 255 1352T316 1359Q344 1359 376 1352T430 1332Q438 1311 442 1286T446 1241Q446 1222 442
1197T430 1151Q408 1138 376 1131T316 1123Q287 1123 256 1130T202 1151Q193 1171 190 1196T186 1241ZM574 1241Q574 1261 578 1286T590 1332Q612 1345 644 1352T704 1359Q733 1359 765 1352T818 1332Q827 1311 831 1286T835 1241Q835 1222 831 1197T818 1151Q797
1138 765 1131T704 1123Q676 1123 644 1130T590 1151Q582 1171 578 1196T574 1241Z" />
<glyph unicode="&#xec;" horiz-adv-x="570" d="M436 0Q409 -5 375 -7T306 -10Q272 -10 238 -8T174 0V696Q174 748 155 777T84 806H57Q46 850 46 896Q46 919 48 943T57 991Q99 996 140 998T210 1000H245Q334 1000 385 944T436 791V0ZM153 1510Q103 1494 53 1449T-14
1351L342 1079Q376 1089 407 1117T452 1182L153 1510Z" />
<glyph unicode="&#xed;" horiz-adv-x="570" d="M436 0Q409 -5 375 -7T306 -10Q272 -10 238 -8T174 0V696Q174 748 155 777T84 806H57Q46 850 46 896Q46 919 48 943T57 991Q99 996 140 998T210 1000H245Q334 1000 385 944T436 791V0ZM396 1510Q447 1494 496 1449T563
1351L206 1079Q173 1089 142 1117T96 1182L396 1510Z" />
<glyph unicode="&#xee;" horiz-adv-x="570" d="M436 0Q409 -5 375 -7T306 -10Q272 -10 238 -8T174 0V696Q174 748 155 777T84 806H57Q46 850 46 896Q46 919 48 943T57 991Q99 996 140 998T210 1000H245Q334 1000 385 944T436 791V0ZM385 1458L574 1207Q557 1166
521 1137T456 1098L272 1275L87 1098Q59 1107 23 1136T-31 1207L158 1458Q181 1464 210 1468T272 1472Q303 1472 332 1468T385 1458Z" />
<glyph unicode="&#xef;" horiz-adv-x="570" d="M436 0Q409 -5 375 -7T306 -10Q272 -10 238 -8T174 0V696Q174 748 155 777T84 806H57Q46 850 46 896Q46 919 48 943T57 991Q99 996 140 998T210 1000H245Q334 1000 385 944T436 791V0ZM-59 1241Q-59 1261 -56 1286T-43
1332Q-21 1345 10 1352T71 1359Q99 1359 131 1352T185 1332Q193 1311 197 1286T201 1241Q201 1222 197 1197T185 1151Q163 1138 131 1131T71 1123Q42 1123 11 1130T-43 1151Q-52 1171 -55 1196T-59 1241ZM329 1241Q329 1261 333 1286T345 1332Q367 1345 399 1352T459
1359Q488 1359 520 1352T573 1332Q582 1311 586 1286T590 1241Q590 1222 586 1197T573 1151Q552 1138 520 1131T459 1123Q431 1123 399 1130T345 1151Q337 1171 333 1196T329 1241Z" />
<glyph unicode="&#xf0;" horiz-adv-x="1041" d="M967 495Q967 340 916 222T765 38T519 -28Q373 -28 274 38T124 219T73 484Q73 629 124 739T271 911T501 974Q584 974 657 933T775 841V653Q728 709 662 747T522 785Q453 785 414 746T358 639T341 480Q341 400 355
328T408 211T519 165Q593 165 631 211T684 333T699 495Q699 619 684 698T634 853Q628 951 564 1042T406 1210T212 1340Q219 1387 248 1434T315 1501Q524 1414 669 1269T890 928T967 495ZM709 1495Q737 1475 763 1440T797 1369L285 1016Q255 1037 230 1072T196 1143L709
1495Z" />
<glyph unicode="&#xf1;" horiz-adv-x="1093" d="M249 1004Q326 1004 362 954T398 816V0Q371 -5 337 -7T268 -10Q235 -10 200 -8T137 0V991L150 1004H249ZM962 231Q962 176 971 127T1004 41Q976 18 933 2T841 -15Q763 -15 732 27T701 149V614Q701 698 680 737T597
776Q556 776 507 756T412 695T334 592V830Q403 902 492 956T689 1011Q782 1011 842 967T932 845T962 668V231ZM481 1189Q472 1194 455 1201T419 1208Q390 1208 372 1190T345 1160L325 1133Q289 1134 252 1156T201 1213L218 1251Q250 1323 305 1368T432 1413Q471
1413 503 1402T554 1380L637 1336Q646 1331 663 1324T699 1316Q727 1316 745 1334T773 1365L793 1392Q829 1392 865 1370T916 1312L899 1274Q867 1199 811 1156T684 1113Q649 1113 619 1123T563 1146L481 1189Z" />
<glyph unicode="&#xf2;" horiz-adv-x="1042" d="M969 497Q969 340 918 222T768 38T521 -28Q373 -28 274 38T124 223T74 497Q74 653 124 771T274 955T521 1021Q669 1021 768 955T918 771T969 497ZM343 497Q343 409 357 335T410 215T521 169Q595 169 633 214T686
334T700 497Q700 584 686 659T634 779T521 825Q449 825 410 780T357 659T343 497ZM409 1510Q359 1494 309 1449T242 1351L598 1079Q632 1089 663 1117T708 1182L409 1510Z" />
<glyph unicode="&#xf3;" horiz-adv-x="1042" d="M969 497Q969 340 918 222T768 38T521 -28Q373 -28 274 38T124 223T74 497Q74 653 124 771T274 955T521 1021Q669 1021 768 955T918 771T969 497ZM343 497Q343 409 357 335T410 215T521 169Q595 169 633 214T686
334T700 497Q700 584 686 659T634 779T521 825Q449 825 410 780T357 659T343 497ZM652 1510Q703 1494 752 1449T819 1351L462 1079Q429 1089 398 1117T352 1182L652 1510Z" />
<glyph unicode="&#xf4;" horiz-adv-x="1042" d="M969 497Q969 340 918 222T768 38T521 -28Q373 -28 274 38T124 223T74 497Q74 653 124 771T274 955T521 1021Q669 1021 768 955T918 771T969 497ZM343 497Q343 409 357 335T410 215T521 169Q595 169 633 214T686
334T700 497Q700 584 686 659T634 779T521 825Q449 825 410 780T357 659T343 497ZM641 1458L830 1207Q813 1166 777 1137T712 1098L528 1275L343 1098Q315 1107 279 1136T225 1207L414 1458Q437 1464 466 1468T528 1472Q559 1472 588 1468T641 1458Z" />
<glyph unicode="&#xf5;" horiz-adv-x="1042" d="M969 497Q969 340 918 222T768 38T521 -28Q373 -28 274 38T124 223T74 497Q74 653 124 771T274 955T521 1021Q669 1021 768 955T918 771T969 497ZM343 497Q343 409 357 335T410 215T521 169Q595 169 633 214T686
334T700 497Q700 584 686 659T634 779T521 825Q449 825 410 780T357 659T343 497ZM443 1189Q434 1194 417 1201T381 1208Q352 1208 334 1190T307 1160L287 1133Q251 1134 214 1156T163 1213L180 1251Q212 1323 267 1368T394 1413Q433 1413 465 1402T516 1380L599
1336Q608 1331 625 1324T661 1316Q689 1316 707 1334T735 1365L755 1392Q791 1392 827 1370T878 1312L861 1274Q829 1199 773 1156T646 1113Q611 1113 581 1123T525 1146L443 1189Z" />
<glyph unicode="&#xf6;" horiz-adv-x="1042" d="M969 497Q969 340 918 222T768 38T521 -28Q373 -28 274 38T124 223T74 497Q74 653 124 771T274 955T521 1021Q669 1021 768 955T918 771T969 497ZM343 497Q343 409 357 335T410 215T521 169Q595 169 633 214T686
334T700 497Q700 584 686 659T634 779T521 825Q449 825 410 780T357 659T343 497ZM197 1241Q197 1261 200 1286T213 1332Q235 1345 266 1352T327 1359Q355 1359 387 1352T441 1332Q449 1311 453 1286T457 1241Q457 1222 453 1197T441 1151Q419 1138 387 1131T327
1123Q298 1123 267 1130T213 1151Q204 1171 201 1196T197 1241ZM585 1241Q585 1261 589 1286T601 1332Q623 1345 655 1352T715 1359Q744 1359 776 1352T829 1332Q838 1311 842 1286T846 1241Q846 1222 842 1197T829 1151Q808 1138 776 1131T715 1123Q687 1123 655
1130T601 1151Q593 1171 589 1196T585 1241Z" />
<glyph unicode="&#xf7;" horiz-adv-x="1080" d="M401 989Q401 1043 420 1085Q442 1097 474 1104T540 1111Q572 1111 605 1104T659 1085Q668 1066 673 1040T679 989Q679 966 674 940T659 894Q640 882 606 875T540 868Q507 868 474 875T420 894Q401 936 401 989ZM401
275Q401 329 420 371Q442 383 474 390T540 397Q572 397 605 390T659 371Q668 352 673 326T679 275Q679 251 674 225T659 179Q640 168 606 161T540 153Q507 153 474 160T420 179Q401 221 401 275ZM119 526Q112 553 110 583T108 633Q108 654 110 684T119 741H961Q968
715 970 685T972 633Q972 613 970 583T961 526H119Z" />
<glyph unicode="&#xf8;" horiz-adv-x="1047" d="M971 498Q971 381 941 273T829 86Q770 28 693 0T523 -28Q432 -28 355 0T218 86Q138 165 107 273T76 498Q76 616 107 722T218 907Q277 966 354 993T523 1021Q615 1021 692 994T829 907Q910 829 940 723T971 498ZM321
498Q321 413 337 336T397 209T524 160Q607 160 650 209T709 335T726 498Q726 583 710 660T650 785T524 834Q441 834 398 786T338 660T321 498ZM652 912L766 1111Q803 1103 840 1084T904 1035L768 797L397 88L277 -117Q240 -109 202 -89T140 -40L277 198L652 912Z"
/>
<glyph unicode="&#xf9;" horiz-adv-x="1096" d="M955 283Q955 230 969 185T1011 117Q1003 81 978 43T925 -15Q809 -5 752 77T694 270V993Q721 998 755 1000T825 1003Q858 1003 892 1001T955 993V283ZM131 762Q131 817 122 866T89 951Q118 976 161 991T252 1007Q330
1007 361 966T392 844V378Q392 295 414 256T496 217Q537 217 586 237T681 299T758 400V164Q690 91 601 37T403 -18Q311 -18 251 26T161 149T131 325V762ZM421 1510Q371 1494 321 1449T254 1351L610 1079Q644 1089 675 1117T720 1182L421 1510Z" />
<glyph unicode="&#xfa;" horiz-adv-x="1096" d="M955 283Q955 230 969 185T1011 117Q1003 81 978 43T925 -15Q809 -5 752 77T694 270V993Q721 998 755 1000T825 1003Q858 1003 892 1001T955 993V283ZM131 762Q131 817 122 866T89 951Q118 976 161 991T252 1007Q330
1007 361 966T392 844V378Q392 295 414 256T496 217Q537 217 586 237T681 299T758 400V164Q690 91 601 37T403 -18Q311 -18 251 26T161 149T131 325V762ZM664 1510Q715 1494 764 1449T831 1351L474 1079Q441 1089 410 1117T364 1182L664 1510Z" />
<glyph unicode="&#xfb;" horiz-adv-x="1096" d="M955 283Q955 230 969 185T1011 117Q1003 81 978 43T925 -15Q809 -5 752 77T694 270V993Q721 998 755 1000T825 1003Q858 1003 892 1001T955 993V283ZM131 762Q131 817 122 866T89 951Q118 976 161 991T252 1007Q330
1007 361 966T392 844V378Q392 295 414 256T496 217Q537 217 586 237T681 299T758 400V164Q690 91 601 37T403 -18Q311 -18 251 26T161 149T131 325V762ZM653 1458L842 1207Q825 1166 789 1137T724 1098L540 1275L355 1098Q327 1107 291 1136T237 1207L426 1458Q449
1464 478 1468T540 1472Q571 1472 600 1468T653 1458Z" />
<glyph unicode="&#xfc;" horiz-adv-x="1096" d="M955 283Q955 230 969 185T1011 117Q1003 81 978 43T925 -15Q809 -5 752 77T694 270V993Q721 998 755 1000T825 1003Q858 1003 892 1001T955 993V283ZM131 762Q131 817 122 866T89 951Q118 976 161 991T252 1007Q330
1007 361 966T392 844V378Q392 295 414 256T496 217Q537 217 586 237T681 299T758 400V164Q690 91 601 37T403 -18Q311 -18 251 26T161 149T131 325V762ZM209 1241Q209 1261 212 1286T225 1332Q247 1345 278 1352T339 1359Q367 1359 399 1352T453 1332Q461 1311
465 1286T469 1241Q469 1222 465 1197T453 1151Q431 1138 399 1131T339 1123Q310 1123 279 1130T225 1151Q216 1171 213 1196T209 1241ZM597 1241Q597 1261 601 1286T613 1332Q635 1345 667 1352T727 1359Q756 1359 788 1352T841 1332Q850 1311 854 1286T858 1241Q858
1222 854 1197T841 1151Q820 1138 788 1131T727 1123Q699 1123 667 1130T613 1151Q605 1171 601 1196T597 1241Z" />
<glyph unicode="&#xfd;" horiz-adv-x="966" d="M694 29Q654 -115 601 -219T459 -380T225 -437Q171 -437 107 -425T7 -401Q3 -356 19 -300T61 -214Q89 -223 135 -232T226 -242Q285 -242 326 -217T395 -147T443 -39L450 -12Q378 -11 333 14T268 105L20 973Q62 992
105 1000T181 1009Q228 1009 260 986T309 896L423 474Q435 435 445 384T466 283T482 197Q485 183 500 183L696 993Q718 998 747 1000T802 1003Q836 1003 871 1000T940 985L949 968L694 29ZM612 1510Q663 1494 712 1449T779 1351L422 1079Q389 1089 358 1117T312
1182L612 1510Z" />
<glyph unicode="&#xfe;" horiz-adv-x="1062" d="M390 -270Q390 -357 359 -394T248 -431H150L137 -418V1458L150 1471H248Q327 1471 358 1435T390 1310V-270ZM987 522Q987 333 930 214T785 38T602 -19Q505 -19 420 20T265 110L303 302Q361 255 428 218T552 180Q604
180 641 217T700 327T721 507Q721 612 701 676T646 770T570 800Q529 800 481 777T389 699T319 544L262 708Q276 783 328 852T459 966T635 1011Q747 1011 825 948T945 774T987 522Z" />
<glyph unicode="&#xff;" horiz-adv-x="966" d="M694 29Q654 -115 601 -219T459 -380T225 -437Q171 -437 107 -425T7 -401Q3 -356 19 -300T61 -214Q89 -223 135 -232T226 -242Q285 -242 326 -217T395 -147T443 -39L450 -12Q378 -11 333 14T268 105L20 973Q62 992
105 1000T181 1009Q228 1009 260 986T309 896L423 474Q435 435 445 384T466 283T482 197Q485 183 500 183L696 993Q718 998 747 1000T802 1003Q836 1003 871 1000T940 985L949 968L694 29ZM157 1241Q157 1261 160 1286T173 1332Q195 1345 226 1352T287 1359Q315
1359 347 1352T401 1332Q409 1311 413 1286T417 1241Q417 1222 413 1197T401 1151Q379 1138 347 1131T287 1123Q258 1123 227 1130T173 1151Q164 1171 161 1196T157 1241ZM545 1241Q545 1261 549 1286T561 1332Q583 1345 615 1352T675 1359Q704 1359 736 1352T789
1332Q798 1311 802 1286T806 1241Q806 1222 802 1197T789 1151Q768 1138 736 1131T675 1123Q647 1123 615 1130T561 1151Q553 1171 549 1196T545 1241Z" />
<glyph unicode="&#x2013;" horiz-adv-x="1087" d="M128 429Q120 455 118 482T116 530Q116 551 118 579T128 633H961Q967 607 969 579T972 530Q972 510 970 483T961 429H128Z" />
<glyph unicode="&#x2014;" horiz-adv-x="1605" d="M143 429Q136 455 134 482T131 530Q131 551 133 579T143 633H1452Q1459 607 1461 579T1463 530Q1463 510 1461 483T1452 429H143Z" />
<glyph unicode="&#x2018;" horiz-adv-x="497" d="M105 1022Q92 1055 87 1091T81 1167Q81 1298 156 1405T386 1561Q421 1544 437 1509T449 1437Q416 1426 381 1402T320 1345T292 1267Q315 1264 340 1258T380 1241Q390 1225 396 1193T402 1134Q402 1107 396 1073T380
1022Q357 1008 317 999T242 990Q207 990 167 999T105 1022Z" />
<glyph unicode="&#x2019;" horiz-adv-x="497" d="M393 1528Q405 1494 410 1458T416 1382Q416 1251 341 1144T111 988Q77 1005 62 1040T49 1112Q82 1125 117 1148T178 1205T205 1282Q183 1286 157 1292T117 1308Q109 1325 103 1356T96 1415Q96 1442 102 1476T117
1528Q140 1541 180 1550T256 1560Q291 1560 331 1551T393 1528Z" />
<glyph unicode="&#x201a;" horiz-adv-x="499" d="M395 228Q407 194 412 158T418 82Q418 -49 343 -155T113 -312Q79 -295 63 -260T50 -188Q84 -175 119 -152T179 -95T207 -18Q185 -14 159 -8T119 9Q110 25 104 56T98 115Q98 142 104 177T119 228Q142 241 182 250T257
260Q293 260 333 251T395 228Z" />
<glyph unicode="&#x201c;" horiz-adv-x="929" d="M357 1022Q344 1055 339 1091T333 1167Q333 1298 408 1405T638 1561Q673 1544 689 1509T701 1437Q668 1426 633 1402T572 1345T544 1267Q567 1264 592 1258T632 1241Q642 1225 648 1193T654 1134Q654 1107 648
1073T632 1022Q609 1008 569 999T494 990Q459 990 419 999T357 1022ZM532 1022Q519 1055 514 1091T508 1167Q508 1298 583 1405T813 1561Q848 1544 864 1509T876 1437Q843 1426 808 1402T747 1345T719 1267Q742 1264 767 1258T807 1241Q817 1225 823 1193T829 1134Q829
1107 823 1073T807 1022Q784 1008 744 999T669 990Q634 990 594 999T532 1022Z" />
<glyph unicode="&#x201d;" horiz-adv-x="929" d="M400 1528Q412 1494 417 1458T423 1382Q423 1251 348 1144T118 988Q84 1005 69 1040T56 1112Q89 1125 124 1148T185 1205T212 1282Q190 1286 164 1292T124 1308Q116 1325 110 1356T103 1415Q103 1442 109 1476T124
1528Q147 1541 187 1550T263 1560Q298 1560 338 1551T400 1528ZM831 1528Q843 1494 848 1458T854 1382Q854 1251 779 1144T549 988Q515 1005 500 1040T487 1112Q520 1125 555 1148T616 1205T643 1282Q621 1286 595 1292T555 1308Q547 1325 541 1356T534 1415Q534
1442 540 1476T555 1528Q578 1541 618 1550T694 1560Q729 1560 769 1551T831 1528Z" />
<glyph unicode="&#x201e;" horiz-adv-x="929" d="M395 228Q407 194 412 158T418 82Q418 -49 343 -155T113 -312Q79 -295 63 -260T50 -188Q84 -175 119 -152T179 -95T207 -18Q185 -14 159 -8T119 9Q110 25 104 56T98 115Q98 142 104 177T119 228Q142 241 182 250T257
260Q293 260 333 251T395 228ZM826 228Q838 194 843 158T849 82Q849 -49 774 -155T544 -312Q510 -295 494 -260T481 -188Q515 -175 550 -152T610 -95T638 -18Q616 -14 590 -8T550 9Q541 25 535 56T529 115Q529 142 535 177T550 228Q573 241 613 250T688 260Q724
260 764 251T826 228Z" />
<glyph unicode="&#x2022;" horiz-adv-x="909" d="M205 538Q205 568 213 627T238 723Q278 747 339 761T457 776Q510 776 573 762T675 723Q692 686 700 627T708 538Q708 508 700 450T675 354Q638 329 574 316T457 302Q401 302 340 315T238 354Q221 391 213 449T205 538Z" />
<glyph unicode="&#x2039;" horiz-adv-x="682" d="M345 515L614 196Q606 169 582 141T528 91T469 62L68 432Q55 464 55 510T68 588L463 961Q506 951 549 910T605 826L345 515Z" />
<glyph unicode="&#x203a;" horiz-adv-x="682" d="M337 509L67 828Q76 856 99 883T154 932T213 961L613 591Q627 560 627 514T613 437L218 62Q175 74 133 114T77 197L337 509Z" />
</font>
</defs>
</svg>
